<svg width="100%" height="100%" id="svg" viewBox="0 0 1440 390" xmlns="http://www.w3.org/2000/svg" class="transition duration-300 ease-in-out delay-150"><defs><linearGradient id="gradient" x1="98%" y1="35%" x2="2%" y2="65%"><stop offset="5%" stop-color="#0693e3"></stop><stop offset="95%" stop-color="#7bdcb5"></stop></linearGradient></defs><path d="M 0,400 C 0,400 0,80 0,80 C 49.04816377702893,91.58427111536889 98.09632755405786,103.16854223073777 140,106 C 181.90367244594214,108.83145776926223 216.6628535607975,102.91010219241782 258,96 C 299.3371464392025,89.08989780758218 347.2522582027521,81.19104899959095 396,85 C 444.7477417972479,88.80895100040905 494.32811362819393,104.32570180921839 535,100 C 575.6718863718061,95.67429819078161 607.4352872844723,71.5061437635355 643,67 C 678.5647127155277,62.4938562364645 717.9307372339164,77.64972313663964 766,77 C 814.0692627660836,76.35027686336036 870.8417637798623,59.894963689905964 918,68 C 965.1582362201377,76.10503631009404 1002.7022076466349,108.77042210373654 1047,109 C 1091.2977923533651,109.22957789626346 1142.3494056335985,77.02334789514785 1185,61 C 1227.6505943664015,44.97665210485214 1261.9001698189718,45.13618631567204 1303,51 C 1344.0998301810282,56.86381368432796 1392.049915090514,68.43190684216398 1440,80 C 1440,80 1440,400 1440,400 Z" stroke="none" stroke-width="0" fill="url(#gradient)" fill-opacity="0.265" class="transition-all duration-300 ease-in-out delay-150 path-0"></path><defs><linearGradient id="gradient" x1="98%" y1="35%" x2="2%" y2="65%"><stop offset="5%" stop-color="#0693e3"></stop><stop offset="95%" stop-color="#7bdcb5"></stop></linearGradient></defs><path d="M 0,400 C 0,400 0,160 0,160 C 47.507064575479134,161.0497822810991 95.01412915095827,162.0995645621982 135,156 C 174.98587084904173,149.9004354378018 207.45054797164613,136.65152403230633 252,138 C 296.54945202835387,139.34847596769367 353.1836789624574,155.29433930857647 396,167 C 438.8163210375426,178.70566069142353 467.8147361785243,186.17111873338777 510,184 C 552.1852638214757,181.82888126661223 607.5573763234457,170.0211857578725 657,170 C 706.4426236765543,169.9788142421275 749.9557585276924,181.74413823512222 796,185 C 842.0442414723076,188.25586176487778 890.6195895657842,183.00226130163853 930,172 C 969.3804104342158,160.99773869836147 999.5658832091713,144.2468165583237 1037,148 C 1074.4341167908287,151.7531834416763 1119.1168775975307,176.01047246506667 1167,179 C 1214.8831224024693,181.98952753493333 1265.9666064007056,163.7112935814095 1312,157 C 1358.0333935992944,150.2887064185905 1399.0166967996472,155.14435320929525 1440,160 C 1440,160 1440,400 1440,400 Z" stroke="none" stroke-width="0" fill="url(#gradient)" fill-opacity="0.4" class="transition-all duration-300 ease-in-out delay-150 path-1"></path><defs><linearGradient id="gradient" x1="98%" y1="35%" x2="2%" y2="65%"><stop offset="5%" stop-color="#0693e3"></stop><stop offset="95%" stop-color="#7bdcb5"></stop></linearGradient></defs><path d="M 0,400 C 0,400 0,240 0,240 C 37.717438230341116,246.1554684719303 75.43487646068223,252.31093694386058 120,246 C 164.56512353931777,239.68906305613942 215.9779323876122,220.91172069648795 265,224 C 314.0220676123878,227.08827930351205 360.6533939888688,252.0421802701875 404,254 C 447.3466060111312,255.9578197298125 487.4084916569126,234.91955822276213 529,221 C 570.5915083430874,207.08044177723787 613.712639383481,200.27958683876406 656,212 C 698.287360616519,223.72041316123594 739.7409508091635,253.96209442218162 779,263 C 818.2590491908365,272.0379055778184 855.3235573798651,259.87203547250937 902,246 C 948.6764426201349,232.12796452749063 1004.9648196713765,216.549763687781 1050,216 C 1095.0351803286235,215.450236312219 1128.8171639346292,229.92890977636665 1174,233 C 1219.1828360653708,236.07109022363335 1275.766524590106,227.7345972067524 1322,227 C 1368.233475409894,226.2654027932476 1404.116737704947,233.13270139662382 1440,240 C 1440,240 1440,400 1440,400 Z" stroke="none" stroke-width="0" fill="url(#gradient)" fill-opacity="0.53" class="transition-all duration-300 ease-in-out delay-150 path-2"></path><defs><linearGradient id="gradient" x1="98%" y1="35%" x2="2%" y2="65%"><stop offset="5%" stop-color="#0693e3"></stop><stop offset="95%" stop-color="#7bdcb5"></stop></linearGradient></defs><path d="M 0,400 C 0,400 0,320 0,320 C 54.869653757001274,318.04345878215537 109.73930751400255,316.08691756431074 154,311 C 198.26069248599745,305.91308243568926 231.9124237009911,297.69578852491236 267,302 C 302.0875762990089,306.30421147508764 338.610997682033,323.1299283360397 381,332 C 423.389002317967,340.8700716639603 471.6435855708769,341.78449813092885 518,344 C 564.3564144291231,346.21550186907115 608.8146600344596,349.732079140245 647,347 C 685.1853399655404,344.267920859755 717.0977742912847,335.2871853080913 764,323 C 810.9022257087153,310.7128146919087 872.7942428004017,295.11917962738994 919,291 C 965.2057571995983,286.88082037261006 995.725254507109,294.23609618234906 1032,301 C 1068.274745492891,307.76390381765094 1110.304739171163,313.9364356432137 1154,322 C 1197.695260828837,330.0635643567863 1243.0557888082392,340.0181612447961 1291,340 C 1338.9442111917608,339.9818387552039 1389.4721055958803,329.9909193776019 1440,320 C 1440,320 1440,400 1440,400 Z" stroke="none" stroke-width="0" fill="url(#gradient)" fill-opacity="1" class="transition-all duration-300 ease-in-out delay-150 path-3"></path></svg>