<?xml version="1.0" encoding="UTF-8" standalone="no"?>
<svg
   xmlns:dc="http://purl.org/dc/elements/1.1/"
   xmlns:cc="http://creativecommons.org/ns#"
   xmlns:rdf="http://www.w3.org/1999/02/22-rdf-syntax-ns#"
   xmlns:svg="http://www.w3.org/2000/svg"
   xmlns="http://www.w3.org/2000/svg"
   xmlns:sodipodi="http://sodipodi.sourceforge.net/DTD/sodipodi-0.dtd"
   xmlns:inkscape="http://www.inkscape.org/namespaces/inkscape"
   width="706.86407"
   height="87.783546"
   id="svg"
   viewBox="0 0 706.86407 87.783546"
   class="transition duration-300 ease-in-out delay-150"
   version="1.1"
   sodipodi:docname="header-text-only.svg"
   inkscape:version="0.92.2 (5c3e80d, 2017-08-06)">
  <metadata
     id="metadata44">
    <rdf:RDF>
      <cc:Work
         rdf:about="">
        <dc:format>image/svg+xml</dc:format>
        <dc:type
           rdf:resource="http://purl.org/dc/dcmitype/StillImage" />
        <dc:title></dc:title>
      </cc:Work>
    </rdf:RDF>
  </metadata>
  <sodipodi:namedview
     pagecolor="#ffffff"
     bordercolor="#666666"
     borderopacity="1"
     objecttolerance="10"
     gridtolerance="10"
     guidetolerance="10"
     inkscape:pageopacity="0"
     inkscape:pageshadow="2"
     inkscape:window-width="1609"
     inkscape:window-height="849"
     id="namedview42"
     showgrid="false"
     inkscape:zoom="0.58925565"
     inkscape:cx="320.3154"
     inkscape:cy="2.8699306"
     inkscape:window-x="2010"
     inkscape:window-y="101"
     inkscape:window-maximized="0"
     inkscape:current-layer="g11"
     fit-margin-top="0"
     fit-margin-left="0"
     fit-margin-right="0"
     fit-margin-bottom="0" />
  <defs
     id="defs7">
    <linearGradient
       id="gradient"
       x1="0.98000002"
       y1="0.34999999"
       x2="0.02"
       y2="0.64999998">
      <stop
         offset="5%"
         stop-color="#0693e3"
         id="stop2" />
      <stop
         offset="95%"
         stop-color="#7bdcb5"
         id="stop4" />
    </linearGradient>
    <linearGradient
       gradientTransform="matrix(2.4073174,0,0,0.25068573,28.444417,-0.34965185)"
       id="editing-gradient-gradient"
       x1="0.048022047"
       x2="128.2558"
       y1="-60.638817"
       y2="-60.638817"
       gradientUnits="userSpaceOnUse">
      <stop
         id="stop4-8"
         stop-color="#0ff"
         offset="0"
         style="stop-color:#6771ff;stop-opacity:1" />
      <stop
         id="stop2-0"
         stop-color="#f0f"
         offset="1"
         style="stop-color:#900076;stop-opacity:1" />
    </linearGradient>
  </defs>
  <defs
     id="defs17">
    <linearGradient
       id="linearGradient15"
       x1="0.98000002"
       y1="0.34999999"
       x2="0.02"
       y2="0.64999998">
      <stop
         offset="5%"
         stop-color="#0693e3"
         id="stop11" />
      <stop
         offset="95%"
         stop-color="#7bdcb5"
         id="stop13" />
    </linearGradient>
  </defs>
  <defs
     id="defs27">
    <linearGradient
       id="linearGradient25"
       x1="0.98000002"
       y1="0.34999999"
       x2="0.02"
       y2="0.64999998">
      <stop
         offset="5%"
         stop-color="#0693e3"
         id="stop21" />
      <stop
         offset="95%"
         stop-color="#7bdcb5"
         id="stop23" />
    </linearGradient>
  </defs>
  <defs
     id="defs37">
    <linearGradient
       id="linearGradient35"
       x1="0.98000002"
       y1="0.34999999"
       x2="0.02"
       y2="0.64999998">
      <stop
         offset="5%"
         stop-color="#0693e3"
         id="stop31" />
      <stop
         offset="95%"
         stop-color="#7bdcb5"
         id="stop33" />
    </linearGradient>
  </defs>
  <g
     transform="matrix(2.3882211,0,0,2.927347,-267.09631,-202.60633)"
     id="g13"
     style="fill:#5fbcd3">
    <g
       transform="translate(70.621519,98.68)"
       id="g11"
       style="fill:#5fbcd3">
      <path
         style="fill:#2c89a0;fill-opacity:1;stroke-width:0.73482817"
         inkscape:connector-curvature="0"
         d="m 63.321933,-19.014612 v 0 0 q 0.818683,-1.215706 0.818683,-2.349098 v 0 0 q 0,-1.133392 -0.162031,-1.760241 v 0 0 q -0.170559,-0.63318 -0.545788,-1.114397 v 0 0 q -0.818683,-1.057411 -2.456048,-1.057411 v 0 0 q -2.021123,0 -3.658487,1.095402 v 0 0 q -1.748229,1.133393 -1.748229,2.91896 v 0 0 q 0,1.133393 1.065992,2.007181 v 0 0 q 1.065993,0.867457 2.703359,1.677928 v 0 0 q 1.637365,0.81047 3.487928,1.62094 v 0 0 q 1.859093,0.810471 3.496457,1.785568 v 0 0 q 3.760824,2.228794 3.760824,5.2237357 v 0 0 q 0,2.0261762 -1.441223,3.7484259 v 0 0 q -1.44975,1.7222498 -3.846102,2.9822782 v 0 0 Q 59.552582,0.51899303 52.619364,0.51899303 v 0 0 q -5.619915,0 -8.510887,-1.35500534 v 0 0 Q 41.217503,-2.1973495 41.217503,-4.2615165 v 0 0 q 0,-3.6914397 3.871687,-4.6222145 v 0 0 q 1.091577,-0.284931 2.754526,-0.284931 v 0 0 q 1.671477,0 3.581736,0.5318712 v 0 0 q -0.878378,1.6589318 -0.878378,3.1595686 v 0 0 q 0,3.241882 3.112699,3.241882 v 0 0 q 2.021123,0 3.684071,-1.0954016 v 0 0 q 1.66295,-1.0954015 1.66295,-2.3301026 v 0 0 q 0,-1.2347012 -1.065993,-2.127485 v 0 0 q -1.057465,-0.892784 -2.643663,-1.6019457 v 0 0 q -1.586197,-0.7091619 -3.411177,-1.3993279 v 0 0 q -1.82498,-0.683835 -3.411177,-1.658932 v 0 0 q -3.709656,-2.228794 -3.709656,-5.793598 v 0 0 q 0,-2.311107 1.526502,-4.11567 v 0 0 q 1.526502,-1.804563 3.98255,-3.020269 v 0 0 q 4.912095,-2.469402 10.941352,-2.469402 v 0 0 q 6.037783,0 8.954341,1.33601 v 0 0 q 2.916556,1.33601 2.916556,3.609126 v 0 0 q 0,1.981854 -2.07229,3.241883 v 0 0 q -1.799397,1.051079 -3.98255,1.051079 v 0 0 q -2.183153,0 -3.709656,-0.405236 z m 33.020198,11.8721262 v 0 0 q 1.364471,0.6901663 1.364471,2.2097984 v 0 0 q 0,1.5196322 -1.040409,2.4947295 v 0 0 q -1.031881,0.9687656 -2.728941,1.62094099 v 0 0 q -3.48793,1.33600994 -7.257281,1.33600994 v 0 0 q -3.769351,0 -5.978088,-0.60785286 v 0 0 Q 78.493145,-0.69671269 77.017811,-1.830105 v 0 0 q -2.890973,-2.1464805 -2.890973,-6.0785287 v 0 0 q 0,-6.1228513 4.477171,-9.8459503 v 0 0 q 4.801231,-4.014361 13.150089,-4.014361 v 0 0 q 5.18499,0 7.7519,1.620941 v 0 0 q 1.910262,1.215706 1.910262,3.203891 v 0 0 q 0,7.1296076 -16.59538,7.1296076 v 0 0 q -0.213199,1.0510787 -0.213199,1.9438625 v 0 0 q 0,1.8678812 1.11716,2.5770429 v 0 0 q 1.117161,0.7091617 3.189451,0.7091617 v 0 0 q 2.080818,0 4.289556,-0.7091617 v 0 0 q 2.208737,-0.7091617 3.138283,-1.8488858 z M 85.204637,-11.55575 v 0 0 q 3.880214,0 6.114535,-1.785569 v 0 0 q 2.234322,-1.703254 2.234322,-4.413265 v 0 0 q 0,-0.937106 -0.46051,-1.44365 v 0 0 q -0.460508,-0.506544 -1.390054,-0.506544 v 0 0 q -0.929545,0 -1.722645,0.265936 v 0 0 q -0.793098,0.265935 -1.611781,1.152387 v 0 0 q -2.012594,2.026176 -3.163867,6.730705 z m 31.109933,9.0354787 v 0 0 q -1.68854,3.03926433 -7.09524,3.03926433 v 0 0 q -2.72894,0 -4.47718,-1.41832333 v 0 0 q -1.41563,-1.1777149 -1.41563,-2.5137249 v 0 0 q 0,-3.0392643 1.91026,-9.6813238 v 0 l 3.98255,-15.563566 11.07779,-0.81047 -5.28733,20.5023707 v 0 q -0.92954,3.0012734 -0.92954,4.0523524 v 0 0 q 0,2.3111071 2.23432,2.3934206 z m 25.92495,-21.2748497 v 0 0 q 0.76752,-0.975098 0.76752,-2.026177 v 0 0 q 0,-1.861549 -1.52651,-1.861549 v 0 0 q -2.35371,0 -3.33443,3.564804 v 0 l -0.81867,3.159569 h 4.97179 l -0.3326,1.823558 h -5.12529 l -4.91209,18.84343855 -11.02663,0.81047048 5.23616,-19.65390903 h -3.87169 l 0.48609,-1.823558 h 3.82052 l 1.15127,-3.203892 v 0 q 0.98071,-2.956951 5.18499,-4.330951 v 0 0 q 3.05301,-0.975098 8.18682,-0.975098 v 0 0 q 5.1253,0 7.41932,0.975098 v 0 0 q 2.29401,0.968765 2.29401,2.266784 v 0 0 q 0,1.298019 -1.36447,2.10849 v 0 0 q -1.36447,0.81047 -2.89097,0.81047 v 0 0 q -3.00184,0 -4.31514,-0.487548 z m 0.54579,16.9375662 v 0 0 q -1.74823,-0.9307746 -1.74823,-2.7163422 v 0 0 q 0,-0.968765 0.65665,-1.76024 v 0 0 q 0.65665,-0.791476 1.96996,-0.91178 v 0 h 10.7452 v 0 q 1.80793,0 2.35372,-0.810471 v 0 0 q 0.86985,0.367245 1.2536,1.133393 v 0 0 q 0.38376,0.772479 0.38376,1.58295 v 0 0 q 0,0.8104706 -0.85279,1.6019454 v 0 0 q -0.84427,0.7851434 -2.09787,0.8674567 v 0 h -9.98622 v 0 q -1.15128,0 -1.69707,0.2659356 v 0 0 q -0.54579,0.2596039 -0.98071,0.7471525 z m 46.82694,2.0704988 v 0 0 q 0,1.779236 2.45605,2.3047755 v 0 0 q -0.59697,1.50063674 -2.94214,2.31110726 v 0 0 q -1.96996,0.69016627 -4.11901,0.69016627 v 0 0 q -2.15756,0 -3.27472,-0.42423065 v 0 0 q -1.12569,-0.42423064 -1.72264,-1.11439688 v 0 0 q -0.98072,-1.0574107 -0.98072,-3.0392643 v 0 0 q 0,-1.177715 0.86985,-4.419597 v 0 l 0.76751,-3.0772542 v 0 q 0.92955,-3.526814 0.92955,-4.824833 v 0 0 q 0,-2.266784 -1.69706,-2.266784 v 0 0 q -2.12345,0 -3.48793,2.311107 v 0 0 q -0.54579,0.886451 -0.92954,2.228793 v 0 l -3.70966,13.81598955 -10.97547,0.81047048 7.70073,-29.17693803 10.96695,-0.81047 -0.43493,1.620941 v 0 q -1.5265,6.243155 -2.83981,8.345313 v 0 0 q 3.05301,-2.266784 8.68145,-2.266784 v 0 0 q 5.94398,0 7.03556,2.91896 v 0 0 q 0.38375,0.930775 0.38375,1.741245 v 0 0 q 0,0.810471 -0.0853,1.437319 v 0 0 q -0.0767,0.626848 -0.34965,1.766572 v 0 l -0.70782,2.912628 -1.26213,4.5842241 v 0 q -0.27289,0.9307747 -0.27289,1.6209409 z m 18.77853,5.30604903 v 0 0 q -12.00735,0 -12.00735,-8.38963593 v 0 0 q 0,-5.9582241 4.41748,-9.8079591 v 0 0 q 4.69889,-4.090343 12.82603,-4.090343 v 0 0 q 5.90134,0 8.90317,2.026176 v 0 0 q 3.00183,2.026176 3.00183,6.281146 v 0 0 q 0,6.483764 -4.69889,10.2511854 v 0 0 q -4.57951,3.72943063 -12.44227,3.72943063 z M 209.80642,-17.10874 v 0 0 q -0.64812,1.095402 -1.16833,2.735338 v 0 0 q -0.5202,1.639936 -1.17686,4.235974 v 0 0 q -0.65665,2.589707 -0.65665,5.7935981 v 0 0 q 0,1.0510789 0.46903,1.7412451 v 0 0 q 0.46052,0.6901664 1.71412,0.6901664 v 0 0 q 1.26214,0 2.04671,-0.4432261 v 0 0 q 0.7931,-0.4495579 1.39858,-1.5006367 v 0 0 q 1.09158,-1.8678812 1.96143,-5.3313762 v 0 0 q 0.86985,-3.4634946 0.95513,-4.9641316 v 0 0 q 0.0853,-1.500637 0.0853,-2.615034 v 0 0 q 0,-1.114396 -0.44345,-1.842553 v 0 0 q -0.43492,-0.728158 -1.66295,-0.728158 v 0 0 q -1.22802,0 -2.04671,0.569862 v 0 0 q -0.81868,0.56353 -1.47533,1.658932 z m 35.26304,2.596038 v 0 0 q 0.759,-1.500636 0.759,-2.798655 v 0 0 q 0,-2.393421 -2.61809,-2.393421 v 0 0 q -1.36447,0 -2.48163,0.911779 v 0 0 q -1.11716,0.91178 -1.11716,2.051504 v 0 0 q 0,0.81047 0.86985,1.456314 v 0 0 q 1.25361,0.892783 4.47718,2.349098 v 0 0 q 3.22355,1.462645 4.45157,2.653024 v 0 0 q 1.22803,1.1967104 1.22803,2.8366468 v 0 0 q 0,1.6462681 -1.06599,3.1405731 v 0 0 q -1.066,1.5006367 -2.97626,2.5580474 v 0 0 q -4.0934,2.26678473 -10.64287,2.26678473 v 0 0 q -3.54762,0 -6.27656,-1.38033255 v 0 0 q -2.72895,-1.33600998 -2.72895,-2.91262838 v 0 0 q 0,-1.5829501 1.55209,-2.5137248 v 0 0 q 1.56062,-0.9307747 3.85463,-0.9307747 v 0 0 q 2.28549,0 3.70965,0.6458437 v 0 0 q -0.70782,1.3360099 -0.70782,2.2287938 v 0 0 q 0,2.6720199 3.05301,2.6720199 v 0 0 q 1.31331,0 2.18315,-0.6078529 v 0 0 q 0.86985,-0.6078528 0.86985,-1.6589318 v 0 0 q 0,-2.064167 -4.69037,-4.25497 v 0 0 q -3.82051,-1.8615493 -4.69036,-2.5960383 v 0 0 q -1.47534,-1.291687 -1.47534,-2.912628 v 0 0 q 0,-1.620941 1.03188,-3.1659 v 0 0 q 1.04042,-1.538628 2.95067,-2.63403 v 0 0 q 3.98255,-2.266784 10.91576,-2.266784 v 0 0 q 3.54763,0 5.64551,1.051079 v 0 0 q 2.1064,1.057411 2.1064,2.836647 v 0 0 q 0,1.785567 -1.44975,2.798655 v 0 0 q -1.44122,1.013088 -4.06783,1.013088 v 0 0 q -1.79939,0 -2.66925,-0.443226 z m 11.0778,10.1688721 v 0 0 q 0,-1.0954015 0.76752,-3.8497348 v 0 l 2.89097,-10.9413513 h -3.22356 l 0.22172,-1.215706 v 0 q 6.54947,-1.456314 12.8772,-5.02745 v 0 h 2.61808 l -1.30478,4.419598 h 4.25545 l -0.49462,1.823558 h -4.19575 l -2.78864,10.9413513 v 0 q -0.70782,2.5137248 -0.70782,3.3621861 v 0 0 q 0,1.9438629 2.29402,2.3490981 v 0 0 q -0.54579,1.3803326 -2.51574,2.19080305 v 0 0 q -1.96143,0.81047048 -4.74154,0.81047048 v 0 0 q -2.78864,0 -4.36631,-1.29801914 v 0 0 q -1.5862,-1.29801909 -1.5862,-3.56480379 z m 40.71241,-2.7986559 v 0 0 q 1.36447,0.6901663 1.36447,2.2097984 v 0 0 q 0,1.5196322 -1.03188,2.4947295 v 0 0 q -1.04041,0.9687656 -2.72894,1.62094099 v 0 0 q -3.49647,1.33600994 -7.25729,1.33600994 v 0 0 q -3.76935,0 -5.97808,-0.60785286 v 0 0 q -2.20874,-0.60785286 -3.68408,-1.74124517 v 0 0 q -2.89096,-2.1464805 -2.89096,-6.0785287 v 0 0 q 0,-6.1228513 4.46864,-9.8459503 v 0 0 q 4.80976,-4.014361 13.15861,-4.014361 v 0 0 q 5.18499,0 7.7519,1.620941 v 0 0 q 1.91026,1.215706 1.91026,3.203891 v 0 0 q 0,7.1296076 -16.59538,7.1296076 v 0 0 q -0.22172,1.0510787 -0.22172,1.9438625 v 0 0 q 0,1.8678812 1.12568,2.5770429 v 0 0 q 1.11717,0.7091617 3.18945,0.7091617 v 0 0 q 2.07229,0 4.28104,-0.7091617 v 0 0 q 2.21726,-0.7091617 3.13828,-1.8488858 z M 285.7307,-11.55575 v 0 0 q 3.87168,0 6.11454,-1.785569 v 0 0 q 2.23432,-1.703254 2.23432,-4.413265 v 0 0 q 0,-0.937106 -0.46052,-1.44365 v 0 0 q -0.46903,-0.506544 -1.39858,-0.506544 v 0 0 q -0.92101,0 -1.71411,0.265936 v 0 0 q -0.7931,0.265935 -1.61179,1.152387 v 0 0 q -2.02111,2.026176 -3.16386,6.730705 z m 35.25452,-10.213195 v 0 0 q 1.96995,0 3.49646,0.322921 v 0 0 q 0.0512,-0.158295 0.16203,-0.607852 v 0 l 0.27289,-1.253697 v 0 q 0.22173,-0.81047 0.54579,-2.14648 v 0 l 0.86985,-3.203892 10.8646,-0.81047 -6.05484,23.5036441 v 0 q -0.0597,0.2406085 -0.0597,0.6458437 v 0 0.6521755 0 q 0,0.8927838 0.60549,1.5576229 v 0 0 q 0.59695,0.6711709 1.57766,0.6711709 v 0 0 q -1.09157,1.90587202 -4.41747,2.71634255 v 0 0 q -1.15123,0.24060838 -2.75449,0.24060838 v 0 0 q -1.61177,0 -3.08711,-0.62684827 v 0 0 q -1.47533,-0.62684826 -1.91026,-1.68425906 v 0 0 q -0.86985,1.0574108 -2.61807,1.68425906 v 0 0 q -1.74823,0.62684827 -4.28956,0.62684827 v 0 0 q -2.5328,0 -4.63921,-0.48754865 v 0 0 q -2.09787,-0.48754865 -3.41117,-1.53862758 v 0 0 q -2.39635,-2.064167 -2.39635,-6.7686949 v 0 0 q 0,-6.0785289 4.80123,-9.7636369 v 0 0 q 4.80123,-3.72943 12.44227,-3.72943 z m -0.38376,2.431411 v 0 0 q -2.01259,0 -3.10417,1.620941 v 0 0 q -1.09157,1.620941 -2.21726,5.635303 v 0 0 q -1.11717,4.0080295 -1.11717,7.6171559 v 0 0 q 0,2.4694022 1.96996,2.4694022 v 0 0 q 1.7397,0 2.96772,-1.2980191 v 0 0 q 1.22803,-1.2916873 1.72265,-3.4444995 v 0 l 2.95067,-11.8721255 v 0 q -1.15128,-0.728158 -3.1724,-0.728158 z"
         id="path9-9" />
    </g>
  </g>
</svg>
