<?xml version="1.0" encoding="UTF-8" standalone="no"?>
<svg
   xmlns:dc="http://purl.org/dc/elements/1.1/"
   xmlns:cc="http://creativecommons.org/ns#"
   xmlns:rdf="http://www.w3.org/1999/02/22-rdf-syntax-ns#"
   xmlns:svg="http://www.w3.org/2000/svg"
   xmlns="http://www.w3.org/2000/svg"
   xmlns:sodipodi="http://sodipodi.sourceforge.net/DTD/sodipodi-0.dtd"
   xmlns:inkscape="http://www.inkscape.org/namespaces/inkscape"
   width="1049.8883"
   height="631.43323"
   viewBox="0 0 1049.8883 631.43323"
   version="1.1"
   id="svg6"
   sodipodi:docname="trace.svg"
   inkscape:version="0.92.2 (5c3e80d, 2017-08-06)">
  <metadata
     id="metadata12">
    <rdf:RDF>
      <cc:Work
         rdf:about="">
        <dc:format>image/svg+xml</dc:format>
        <dc:type
           rdf:resource="http://purl.org/dc/dcmitype/StillImage" />
        <dc:title></dc:title>
      </cc:Work>
    </rdf:RDF>
  </metadata>
  <defs
     id="defs10" />
  <sodipodi:namedview
     pagecolor="#ffffff"
     bordercolor="#666666"
     borderopacity="1"
     objecttolerance="10"
     gridtolerance="10"
     guidetolerance="10"
     inkscape:pageopacity="0"
     inkscape:pageshadow="2"
     inkscape:window-width="1920"
     inkscape:window-height="1009"
     id="namedview8"
     showgrid="false"
     inkscape:zoom="0.5"
     inkscape:cx="1519.7558"
     inkscape:cy="416.75255"
     inkscape:window-x="1912"
     inkscape:window-y="-8"
     inkscape:window-maximized="1"
     inkscape:current-layer="svg6"
     fit-margin-top="20"
     fit-margin-right="20"
     fit-margin-bottom="20"
     fit-margin-left="20" />
  <path
     d="m 335.40801,119.72391 c 0.825,0.575 2.462,1.052 3.638,1.061 7.533,0.054 32.775,10.075 42.866,17.018 17.421,11.986 30.134,30.642 34.05,49.967 1.692,8.349 1.672,26.527 -0.035,31.53 -1.625,4.764 2.53,-2.016 4.56,-7.44 6.679,-17.849 4.407,-38.278 -6.291,-56.56 -5.932,-10.137 -18.305,-22.023 -28.288,-27.173 -13.494,-6.962 -19.902,-8.523 -37,-9.016 -10.61,-0.306 -14.561,-0.126 -13.5,0.613"
     id="path58"
     style="fill:#f1d707;fill-opacity:1"
     inkscape:connector-curvature="0" />
  <path
     d="m 321.71901,126.59991 c -4.931,0.285 -5.246,0.472 -6.325,3.742 -1.961,5.942 -1.352,6.572 8.74,9.047 24.059,5.9 54.872,28.017 67.578,48.507 7.349,11.85 11.152,22.573 13.153,37.09 l 0.646,4.686 3.327,-1.963 c 3.037,-1.792 3.48,-2.695 5.096,-10.395 3.445,-16.418 0.505,-34.825 -7.988,-50.012 -9.977,-17.841 -31.023,-32.933 -53.049,-38.041 -7.562,-1.753 -23.438,-3.109 -31.178,-2.661"
     id="path54"
     style="fill:#f1d707;fill-opacity:1"
     inkscape:connector-curvature="0" />
  <path
     d="m 311.99301,142.98191 c -0.872,1.245 -1.585,2.531 -1.585,2.859 0,0.328 3.593,3.426 7.985,6.886 10.362,8.161 24.431,22.922 30.384,31.876 10.374,15.604 15.501,31.987 14.187,45.325 l -0.677,6.872 2.81,-0.002 c 2.243,-0.001 3.448,-0.962 5.964,-4.75 5.373,-8.091 7.162,-17.227 5.344,-27.288 -4.071,-22.539 -24.562,-45.849 -52.497,-59.72 -9.062,-4.5 -10.081,-4.676 -11.915,-2.058"
     id="path48"
     style="fill:#f1d707;fill-opacity:1"
     inkscape:connector-curvature="0" />
  <path
     d="m 337.73401,148.90491 c 10.875,7.735 24.88,22.195 30.893,31.895 2.557,4.125 5.856,11.1 7.331,15.5 2.366,7.059 2.627,9.117 2.221,17.5 -0.378,7.786 -0.952,10.465 -3.183,14.849 -1.497,2.943 -2.514,5.558 -2.26,5.812 1.124,1.124 7.842,-6.31 10.369,-11.475 5.328,-10.888 3.202,-27.431 -5.415,-42.144 -7.873,-13.443 -24.368,-27.672 -40.621,-35.042 -3.639,-1.65 -6.91,-3 -7.267,-3 -0.357,0 3.212,2.747 7.932,6.105"
     id="path46"
     style="fill:#f1d707;fill-opacity:1"
     inkscape:connector-curvature="0" />
  <path
     d="m 580.90801,20.459909 c -99.58,5.968 -184.241,23.024 -267.25,53.842 l -10.25,3.805 v 13.347 c 0,7.34 0.213,13.346001 0.474,13.346001 0.261,0 3.748,-1.299 7.75,-2.886 36.495,-14.473001 87.141,-29.324001 131.276,-38.492001 117.018,-24.309 233.898,-24.851 334.926,-1.555 7.6654,1.76762 13.47446,2.57028 13.47446,2.57028 0,0 0.72978,-2.12838 1.11054,-4.63728 1.0975,-5.8495 4.10308,-14.22012 6.32008,-19.22012 0,0 -6.68328,-1.87304 -12.70572,-3.28979 -36.841,-8.797 -78.78736,-13.96409 -122.62536,-16.46309 -15.68,-0.894 -69.696,-1.134 -82.5,-0.367 m 264.234,19.374 c -24.888,6.222 -32.539,37.785 -13.054,53.856 15.949,13.155001 41.07,6.758001 48.189,-12.271 4.244,-11.342 2.214,-22.974 -5.508,-31.563 -7.516,-8.359 -19.739,-12.494 -29.627,-10.022 m -572.234,50.262 C 165.86001,138.82991 90.002012,199.22391 49.076012,268.29991 c -12.789,21.585 -21.242,43.16 -26.389,67.354 -2.445,11.496 -2.689,14.602 -2.687,34.146 0,18.539 0.314,22.946 2.26,32 11.453,53.298 43.448,96.488 98.147998,132.493 89.686,59.034 227.439,86.172 378.031,74.473 10.21002,-0.93276 17.49302,-1.27758 17.49302,-1.27758 0.85678,-8.97427 0.47598,-16.20263 0.47598,-25.75742 -22.25288,2.41384 -43.99343,3.48134 -61.399,4.082 -122.94,4.15 -236.306,-20.374 -313.939,-67.912 -26.286,-16.096 -52.612998,-39.81 -67.912998,-61.174 -12.371,-17.272 -22.308,-40.073 -26.436,-60.657 -2.694,-13.435 -2.408,-41.366 0.566,-55.228 8.137,-37.929 27.399,-72.653 60.484998,-109.042 29.883,-32.866 77.218,-68.194 125.903,-93.967 l 11.768,-6.229 -0.268,136.4 -0.267,136.401 c -0.84135,8.98263 -7.5418,16.65297 -14.108,22.04 l -6.355,6.355 h 32.982 32.981 v -146.5 -146.5 h 3.566 c 4.408,0 6.667,1.15 12.547,6.39 2.537,2.26 8.279,6.953 12.761,10.428 23.729,18.396 37.067,43.799 38.785,73.867 l 0.641,11.237 4.245,0.637 c 3.721,0.558 4.906,0.208 9.6,-2.836 7.065,-4.582 11.249,-9.121 14.035,-15.223 1.89,-4.142 2.269,-6.63 2.206,-14.5 -0.042,-5.225 -0.624,-10.85 -1.294,-12.5 -0.805,-1.982 -0.841,-2.628 -0.108,-1.903 2.036,2.012 8.941,19.216 12.435,30.983 1.899,6.394 3.643,11.815 3.875,12.048 0.233,0.232 2.49,-0.464 5.017,-1.547 4.9,-2.1 6.922,-4.656 12.635,-15.974 18.017,-35.692 -0.208,-80.262 -40.324,-98.614 -21.264,-9.727 -45.005,-9.317 -68.906,1.192 -5.364,2.358 -10.01,3.624 -14.771,4.023 l -6.945,0.582 v -22.645 c 0,-12.455001 -0.337,-22.642001 -0.75,-22.639001 -0.413,0.003 -7.95,3.284 -16.75,7.29 m 624.3363,16.524621 c 8.461,5.075 34.3557,22.01638 40.7127,27.17838 67.90699,55.136 85.38299,129.57 47.898,204.001 -21.714,43.115 -64.343,87.881 -118.891,124.851 -70.732,47.938 -162.196,84.839 -260.556,105.12 -8.55122,1.72166 -17.07807,3.56761 -25.673,5.058 l 0.475,-162.514 0.475,-162.515 h -36.77 -36.771 l 6.447,4.977 c 11.719,9.047 17.649,19.388 19.741,34.429 0.731,5.255 1.076,57.89 1.076,163.995 v 156.257 l 6.75,-0.866 c 35.694,-4.582 81.946,-14.184 109.75,-22.785 5.5,-1.701 16.3,-4.897 24,-7.101 69.709,-19.956 140.441,-51.181 193.699,-85.512 88.47,-57.028 143.61299,-125.962 157.96799,-197.476 1.938,-9.651 2.296,-14.59 2.313,-31.918 0.023,-23.139 -1.624,-34.166 -8.014,-53.673 -14.412,-43.998 -50.18599,-85.575 -100.08799,-116.323001 l -11.2094,-7.29394 m -575.1686,35.213941 c 0.825,0.575 2.462,1.052 3.638,1.061 7.533,0.054 32.775,10.075 42.866,17.018 17.421,11.986 30.134,30.642 34.05,49.967 1.692,8.349 1.672,26.527 -0.035,31.53 -1.625,4.764 2.53,-2.016 4.56,-7.44 6.679,-17.849 4.407,-38.278 -6.291,-56.56 -5.932,-10.137 -18.305,-22.023 -28.288,-27.173 -13.494,-6.962 -19.902,-8.523 -37,-9.016 -10.61,-0.306 -14.561,-0.126 -13.5,0.613 m -13.689,6.876 c -4.931,0.285 -5.246,0.472 -6.325,3.742 -1.961,5.942 -1.352,6.572 8.74,9.047 24.059,5.9 54.872,28.017 67.578,48.507 7.349,11.85 11.152,22.573 13.153,37.09 l 0.646,4.686 3.327,-1.963 c 3.037,-1.792 3.48,-2.695 5.096,-10.395 3.445,-16.418 0.505,-34.825 -7.988,-50.012 -9.977,-17.841 -31.023,-32.933 -53.049,-38.041 -7.562,-1.753 -23.438,-3.109 -31.178,-2.661 m 481.189,15.465 c 10.124,7.43 16.9,15.716 20.261,24.777 4.29,11.566 4.492,18.764 4.105,145.958 l -0.366,120.5 c 21.4144,-0.0798 51.2702,-0.25323 72.5,-0.488 -5.4743,-4.91304 -13.2246,-10.88758 -18.095,-17.65 -1.663,-2.418 -3.881,-6.885 -4.928,-9.928 -4.061,-11.805 -4.285,-20.991 -3.561,-146.184 l 0.691,-119.25 c -24.5357,0.0217 -49.0713,0.0423 -73.607,0.063 l 3,2.202 m -490.915,0.917 c -0.872,1.245 -1.585,2.531 -1.585,2.859 0,0.328 3.593,3.426 7.985,6.886 10.362,8.161 24.431,22.922 30.384,31.876 10.374,15.604 15.501,31.987 14.187,45.325 l -0.677,6.872 2.81,-0.002 c 2.243,-0.001 3.448,-0.962 5.964,-4.75 5.373,-8.091 7.162,-17.227 5.344,-27.288 -4.071,-22.539 -24.562,-45.849 -52.497,-59.72 -9.062,-4.5 -10.081,-4.676 -11.915,-2.058 m 25.741,5.923 c 10.875,7.735 24.88,22.195 30.893,31.895 2.557,4.125 5.856,11.1 7.331,15.5 2.366,7.059 2.627,9.117 2.221,17.5 -0.378,7.786 -0.952,10.465 -3.183,14.849 -1.497,2.943 -2.514,5.558 -2.26,5.812 1.124,1.124 7.842,-6.31 10.369,-11.475 5.328,-10.888 3.202,-27.431 -5.415,-42.144 -7.873,-13.443 -24.368,-27.672 -40.621,-35.042 -3.639,-1.65 -6.91,-3 -7.267,-3 -0.357,0 3.212,2.747 7.932,6.105 m -32.326,119.683 19.25,0.474 c 21.068,0.52 27.299,1.647 38.75,7.009 8.943,4.188 19.435,14.774 24.259,24.475 5.643,11.35 7.239,20.003 7.239,39.254 0,19.615 -1.604,27.985 -7.699,40.161 -11.136,22.249 -34.6,32.795 -73.049,32.831 l -8.75,0.008 v 20 l 10.25,0.157 c 25.081,0.385 39.085,-0.821 55.466,-4.776 30.103,-7.268 49.922,-22.698 62.234,-48.453 12.521,-26.191 12.927,-64.083 0.948,-88.471 -9.263,-18.856 -27.321,-31.932 -53.018,-38.388 -15.485,-3.89 -28.024,-5.069 -53.919,-5.069 h -21.961 m 292,20.788 19.25,0.464 c 28.322,0.682 39.519,4.356 52.328,17.168 8.256,8.259 13.328,17.496 16.102,29.326 2.46,10.493 2.485,37.392 0.044,48.254 -2.477,11.021 -8.593,22.676 -15.668,29.863 -12.309,12.501 -34.152,19.101 -63.306,19.129 l -8.75,0.008 v 20 l 10.25,0.148 c 40.107,0.581 64.2,-4.107 85.111,-16.562 29.315,-17.458 45.574,-53.651 41.74,-92.913 -3.806,-38.986 -22.868,-60.968 -61.221,-70.604 -15.485,-3.89 -28.024,-5.069 -53.919,-5.069 h -21.961"
     id="path4"
     inkscape:connector-curvature="0"
     style="fill:#065da4;fill-rule:evenodd;stroke:none"
     sodipodi:nodetypes="cccsscccccccccccccccccccccccccccccccccccccccsccccccccccccscccccsscccccccccccccscccccccccccccccccccccccccccccccccccccccccccsccscccccccccccscccscccccscccccscccsccccccccccccccsc" />
</svg>
