<?xml version="1.0" encoding="UTF-8" standalone="no"?>
<!-- Created with Sodipodi ("http://www.sodipodi.com/") -->

<svg
   xmlns:dc="http://purl.org/dc/elements/1.1/"
   xmlns:cc="http://creativecommons.org/ns#"
   xmlns:rdf="http://www.w3.org/1999/02/22-rdf-syntax-ns#"
   xmlns:svg="http://www.w3.org/2000/svg"
   xmlns="http://www.w3.org/2000/svg"
   xmlns:sodipodi="http://sodipodi.sourceforge.net/DTD/sodipodi-0.dtd"
   xmlns:inkscape="http://www.inkscape.org/namespaces/inkscape"
   id="svg548"
   sodipodi:version="0.32"
   width="398.26001"
   height="109.6"
   sodipodi:docname="logo-wireshark.svg"
   inkscape:version="0.92.2 (5c3e80d, 2017-08-06)"
   inkscape:export-filename="/home/gerald/devel/wsweb/wslogotrans800.png"
   inkscape:export-xdpi="181.64000"
   inkscape:export-ydpi="181.64000"
   version="1.0">
  <metadata
     id="metadata1317">
    <rdf:RDF>
      <cc:Work
         rdf:about="">
        <dc:format>image/svg+xml</dc:format>
        <dc:type
           rdf:resource="http://purl.org/dc/dcmitype/StillImage" />
      </cc:Work>
    </rdf:RDF>
  </metadata>
  <defs
     id="defs550" />
  <sodipodi:namedview
     id="base"
     showgrid="true"
     showguides="true"
     inkscape:zoom="2.3637177"
     inkscape:cx="185.59201"
     inkscape:cy="54.799999"
     inkscape:window-width="1920"
     inkscape:window-height="1009"
     inkscape:window-x="1912"
     inkscape:window-y="-8"
     inkscape:current-layer="svg548"
     inkscape:guide-bbox="true"
     width="398.26px"
     height="109.6px"
     inkscape:window-maximized="1" />
  <path
     transform="scale(0.947903,1.05496)"
     style="font-size:96.08611298px;font-style:normal;font-weight:bold;line-height:125%;writing-mode:lr-tb;text-anchor:start;fill:#0052ff;fill-opacity:1;stroke:none;stroke-width:1pt;stroke-linecap:butt;stroke-linejoin:miter;stroke-opacity:1;font-family:Luxi Sans"
     d="M 14.318411,102.60584 L 2.1621622,56.793348 L 8.3809115,56.793348 L 15.349661,86.824594 C 16.099646,89.97044 16.745478,93.095437 17.28716,96.199593 C 18.45381,91.303772 19.141309,88.480858 19.34966,87.730844 L 28.068409,56.793348 L 35.380908,56.793348 L 41.943407,79.980845 C 43.589198,85.730861 44.776697,91.137105 45.505907,96.199593 C 46.089196,93.30377 46.849611,89.980857 47.787157,86.230845 L 54.974656,56.793348 L 61.068405,56.793348 L 48.505907,102.60584 L 42.662157,102.60584 L 33.005909,67.699597 C 32.193378,64.782968 31.714212,62.991304 31.568409,62.324597 C 31.089212,64.428802 30.641296,66.220467 30.224659,67.699597 L 20.50591,102.60584 L 14.318411,102.60584 z M 67.724654,102.60584 L 67.724654,56.793348 L 73.787153,56.793348 L 73.787153,102.60584 L 67.724654,102.60584 z M 84.537154,102.60584 L 84.537154,56.793348 L 104.84965,56.793348 C 108.93296,56.793394 112.03712,57.204852 114.16215,58.027723 C 116.28711,58.850683 117.98503,60.303807 119.2559,62.387097 C 120.52669,64.470469 121.16211,66.772549 121.16215,69.293347 C 121.16211,72.543376 120.11003,75.282957 118.0059,77.512096 C 115.9017,79.741285 112.6517,81.15795 108.2559,81.762095 C 109.86004,82.532948 111.07879,83.293364 111.91215,84.043345 C 113.68295,85.668362 115.36003,87.699609 116.9434,90.137094 L 124.91215,102.60584 L 117.28715,102.60584 L 111.22465,93.074594 C 109.45379,90.324606 107.99546,88.220442 106.84965,86.762094 C 105.70379,85.303779 104.67775,84.282946 103.77153,83.699595 C 102.86525,83.116281 101.94338,82.710032 101.0059,82.480845 C 100.31838,82.335032 99.193383,82.262115 97.630903,82.262095 L 90.599653,82.262095 L 90.599653,102.60584 L 84.537154,102.60584 z M 90.599653,77.012096 L 103.6309,77.012096 C 106.40171,77.012121 108.56837,76.725663 110.1309,76.152721 C 111.69337,75.579831 112.88087,74.663166 113.6934,73.402721 C 114.50587,72.142335 114.91212,70.772545 114.91215,69.293347 C 114.91212,67.126716 114.12566,65.345468 112.55278,63.949597 C 110.97983,62.553804 108.49546,61.855888 105.09965,61.855847 L 90.599653,61.855847 L 90.599653,77.012096 z M 130.8184,102.60584 L 130.8184,56.793348 L 163.94339,56.793348 L 163.94339,62.199597 L 136.8809,62.199597 L 136.8809,76.230846 L 162.22464,76.230846 L 162.22464,81.605845 L 136.8809,81.605845 L 136.8809,97.199593 L 165.00589,97.199593 L 165.00589,102.60584 L 130.8184,102.60584 z M 170.8184,87.699594 L 179.8184,86.824594 C 180.36005,89.84544 181.45901,92.064188 183.11527,93.480844 C 184.7715,94.897518 187.00588,95.60585 189.81839,95.605843 C 192.79754,95.60585 195.04233,94.975643 196.55277,93.715219 C 198.06316,92.454812 198.81836,90.980856 198.81839,89.293344 C 198.81836,88.210025 198.50066,87.288151 197.86527,86.52772 C 197.22982,85.76732 196.12045,85.105862 194.53714,84.543345 C 193.45379,84.168363 190.98504,83.501697 187.13089,82.543345 C 182.17255,81.3142 178.69339,79.803785 176.6934,78.012096 C 173.88089,75.49129 172.47464,72.418376 172.47465,68.793347 C 172.47464,66.46005 173.1361,64.27776 174.45902,62.246472 C 175.78193,60.215265 177.68818,58.668392 180.17777,57.605848 C 182.66734,56.543394 185.67254,56.012145 189.19339,56.012098 C 194.94337,56.012145 199.27149,57.27256 202.17777,59.793348 C 205.08398,62.314221 206.61002,65.678801 206.75589,69.887096 L 197.50589,70.293346 C 197.11003,67.939215 196.26107,66.246508 194.95902,65.215222 C 193.65691,64.184011 191.70379,63.668386 189.09964,63.668347 C 186.41213,63.668386 184.30796,64.220469 182.78715,65.324597 C 181.80797,66.032967 181.31838,66.980882 181.3184,68.168347 C 181.31838,69.251713 181.77672,70.178796 182.6934,70.949596 C 183.86005,71.928794 186.69338,72.949626 191.19339,74.012096 C 195.69337,75.074623 199.02149,76.173581 201.17777,77.308971 C 203.33398,78.444411 205.02148,79.996493 206.24027,81.96522 C 207.45898,83.933988 208.06835,86.366277 208.06839,89.262094 C 208.06835,91.887105 207.33919,94.345435 205.88089,96.637093 C 204.42252,98.928763 202.36003,100.63189 199.69339,101.74647 C 197.0267,102.86105 193.70379,103.41834 189.72464,103.41834 C 183.93296,103.41834 179.48505,102.0798 176.3809,99.402718 C 173.27673,96.725641 171.42256,92.824604 170.8184,87.699594 L 170.8184,87.699594 z M 215.9434,102.60584 L 215.9434,56.793348 L 225.1934,56.793348 L 225.1934,74.824596 L 243.31839,74.824596 L 243.31839,56.793348 L 252.56839,56.793348 L 252.56839,102.60584 L 243.31839,102.60584 L 243.31839,82.574595 L 225.1934,82.574595 L 225.1934,102.60584 L 215.9434,102.60584 z M 303.47463,102.60584 L 293.41213,102.60584 L 289.41213,92.199594 L 271.09963,92.199594 L 267.31838,102.60584 L 257.50588,102.60584 L 275.34963,56.793348 L 285.13088,56.793348 L 303.47463,102.60584 z M 286.44338,84.480845 L 280.13088,67.480847 L 273.94338,84.480845 L 286.44338,84.480845 z M 308.44338,102.60584 L 308.44338,56.793348 L 327.91213,56.793348 C 332.80793,56.793394 336.36522,57.204852 338.584,58.027723 C 340.80272,58.850683 342.57876,60.314223 343.91213,62.418347 C 345.24542,64.522552 345.91208,66.928799 345.91213,69.637097 C 345.91208,73.074626 344.90167,75.913164 342.88088,78.152721 C 340.86001,80.392326 337.83918,81.803783 333.81838,82.387095 C 335.81835,83.553781 337.46939,84.835029 338.7715,86.230845 C 340.07355,87.626693 341.82876,90.105857 344.03713,93.668344 L 349.63088,102.60584 L 338.56838,102.60584 L 331.88088,92.637094 C 329.50585,89.074608 327.88085,86.829819 327.00588,85.90272 C 326.13086,84.975654 325.20377,84.340238 324.22463,83.99647 C 323.24544,83.652739 321.69336,83.480864 319.56838,83.480845 L 317.69338,83.480845 L 317.69338,102.60584 L 308.44338,102.60584 z M 317.69338,76.168346 L 324.53713,76.168346 C 328.9746,76.168372 331.74543,75.980872 332.84963,75.605846 C 333.95376,75.230873 334.81835,74.585041 335.44338,73.668346 C 336.06835,72.751709 336.38085,71.605877 336.38088,70.230846 C 336.38085,68.689214 335.96939,67.444424 335.1465,66.496472 C 334.32356,65.548592 333.1621,64.949635 331.66213,64.699597 C 330.9121,64.595468 328.6621,64.543385 324.91213,64.543347 L 317.69338,64.543347 L 317.69338,76.168346 z M 354.78713,102.60584 L 354.78713,56.793348 L 364.03713,56.793348 L 364.03713,77.137096 L 382.72463,56.793348 L 395.16213,56.793348 L 377.91213,74.637096 L 396.09963,102.60584 L 384.13088,102.60584 L 371.53713,81.105845 L 364.03713,88.762094 L 364.03713,102.60584 L 354.78713,102.60584 z "
     id="text555" />
  <path
     style="fill:none;fill-opacity:0.75;fill-rule:evenodd;stroke:#0052ff;stroke-width:4.29723692;stroke-linecap:butt;stroke-linejoin:round;stroke-miterlimit:4;stroke-dasharray:none;stroke-opacity:1"
     d="M 2.6508445,51.095312 L 159.58462,51.095312 C 159.58462,51.095312 163.65572,3.3100825 205.7239,2.6463925 C 192.15353,23.884272 204.926,51.162742 204.926,51.162742 L 395.60917,51.162742"
     id="path1328"
     sodipodi:nodetypes="ccccc"
     inkscape:export-filename="/home/gerald/devel/wsweb/image/wslogo.png"
     inkscape:export-xdpi="90.000000"
     inkscape:export-ydpi="90.000000" />
</svg>
