<?xml version="1.0" encoding="UTF-8" standalone="no"?>
<!-- Generator: Adobe Illustrator 23.0.4, SVG Export Plug-In . SVG Version: 6.00 Build 0)  -->

<svg
   xmlns:dc="http://purl.org/dc/elements/1.1/"
   xmlns:cc="http://creativecommons.org/ns#"
   xmlns:rdf="http://www.w3.org/1999/02/22-rdf-syntax-ns#"
   xmlns:svg="http://www.w3.org/2000/svg"
   xmlns="http://www.w3.org/2000/svg"
   xmlns:sodipodi="http://sodipodi.sourceforge.net/DTD/sodipodi-0.dtd"
   xmlns:inkscape="http://www.inkscape.org/namespaces/inkscape"
   version="1.1"
   x="0px"
   y="0px"
   viewBox="0 0 262.40811 147.84474"
   xml:space="preserve"
   id="svg14"
   sodipodi:docname="logo-android (2).svg"
   width="262.40811"
   height="147.84474"
   inkscape:version="0.92.2 (5c3e80d, 2017-08-06)"><metadata
     id="metadata20"><rdf:RDF><cc:Work
         rdf:about=""><dc:format>image/svg+xml</dc:format><dc:type
           rdf:resource="http://purl.org/dc/dcmitype/StillImage" /><dc:title></dc:title></cc:Work></rdf:RDF></metadata><defs
     id="defs18" /><sodipodi:namedview
     pagecolor="#ffffff"
     bordercolor="#666666"
     borderopacity="1"
     objecttolerance="10"
     gridtolerance="10"
     guidetolerance="10"
     inkscape:pageopacity="0"
     inkscape:pageshadow="2"
     inkscape:window-width="640"
     inkscape:window-height="480"
     id="namedview16"
     showgrid="false"
     fit-margin-top="0"
     fit-margin-left="0"
     fit-margin-right="0"
     fit-margin-bottom="0"
     inkscape:zoom="0.6423344"
     inkscape:cx="142.10183"
     inkscape:cy="101.72963"
     inkscape:window-x="232"
     inkscape:window-y="283"
     inkscape:window-maximized="0"
     inkscape:current-layer="g10" /><style
     type="text/css"
     id="style2">
	.st0{fill:#3DDB85;}
	.st1{fill:none;}
</style><g
     id="Layer_1"
     transform="translate(-91.421389,-78.966841)"><g
       id="g10"><g
         id="g6"
         transform="translate(-10.897751,-23.352319)"><path
           class="st0"
           d="m 293.91034,212.77477 c -6.02515,0 -10.92627,-4.90459 -10.92627,-10.92982 0,-6.02523 4.90112,-10.92628 10.92627,-10.92628 6.02536,0 10.92627,4.90105 10.92627,10.92628 0,6.02523 -4.90091,10.92982 -10.92627,10.92982 m -120.77423,0 c -6.02538,0 -10.92627,-4.90459 -10.92627,-10.92982 0,-6.02523 4.90089,-10.92628 10.92627,-10.92628 6.02515,0 10.92625,4.90105 10.92625,10.92628 0,6.02523 -4.90111,10.92982 -10.92625,10.92982 m 124.69308,-65.82016 21.83826,-37.82177 c 1.25195,-2.17392 0.50714,-4.95069 -1.66324,-6.2061 -2.17035,-1.25186 -4.95068,-0.50713 -6.20609,1.66323 l -22.11142,38.30052 c -16.909,-7.71684 -35.8996,-12.015 -56.1636,-12.015 -20.26378,0 -39.25438,4.29816 -56.16338,12.015 l -22.1114,-38.30052 c -1.25543,-2.17036 -4.03575,-2.91509 -6.20612,-1.66323 -2.17036,1.25541 -2.91862,4.03218 -1.66321,6.2061 l 21.83824,37.82177 c -37.49896,20.39503 -63.14611,58.35866 -66.89809,103.20929 h 262.40811 c -3.75542,-44.85064 -29.40257,-82.81426 -66.89806,-103.20929"
           id="path4"
           inkscape:connector-curvature="0"
           style="fill:#3ddb85" /></g></g></g><g
     id="Layer_2"
     transform="translate(-91.421389,-78.966841)" /></svg>