<?xml version="1.0" encoding="UTF-8" standalone="no"?>
<svg
   xmlns:dc="http://purl.org/dc/elements/1.1/"
   xmlns:cc="http://creativecommons.org/ns#"
   xmlns:rdf="http://www.w3.org/1999/02/22-rdf-syntax-ns#"
   xmlns:svg="http://www.w3.org/2000/svg"
   xmlns="http://www.w3.org/2000/svg"
   xmlns:sodipodi="http://sodipodi.sourceforge.net/DTD/sodipodi-0.dtd"
   xmlns:inkscape="http://www.inkscape.org/namespaces/inkscape"
   version="1.1"
   viewBox="0 0 271.97678 62.304012"
   id="svg36"
   sodipodi:docname="logo-emmc.svg"
   inkscape:version="0.92.2 (5c3e80d, 2017-08-06)"
   width="271.97678"
   height="62.304012">
  <metadata
     id="metadata42">
    <rdf:RDF>
      <cc:Work
         rdf:about="">
        <dc:format>image/svg+xml</dc:format>
        <dc:type
           rdf:resource="http://purl.org/dc/dcmitype/StillImage" />
        <dc:title></dc:title>
      </cc:Work>
    </rdf:RDF>
  </metadata>
  <defs
     id="defs40" />
  <sodipodi:namedview
     pagecolor="#ffffff"
     bordercolor="#666666"
     borderopacity="1"
     objecttolerance="10"
     gridtolerance="10"
     guidetolerance="10"
     inkscape:pageopacity="0"
     inkscape:pageshadow="2"
     inkscape:window-width="1920"
     inkscape:window-height="1009"
     id="namedview38"
     showgrid="false"
     inkscape:zoom="5.872167"
     inkscape:cx="129.31243"
     inkscape:cy="21.418543"
     inkscape:window-x="-8"
     inkscape:window-y="-8"
     inkscape:window-maximized="1"
     inkscape:current-layer="svg36"
     fit-margin-top="0"
     fit-margin-left="0"
     fit-margin-right="0"
     fit-margin-bottom="0" />
  <path
     d="m 222.78691,54.843346 c -8.19,-7.32 -9.42,-17.77 -8.58,-28.93 q 1.5,-19.9900003 20.28,-24.7000003 c 14.63,-3.67 31.93,0.71 36.66,16.9200003 a 0.7,0.71 75.6 0 1 -0.53,0.89 l -14.07,3.08 a 1.54,1.53 69 0 1 -1.66,-0.75 q -0.97,-1.71 -2.5,-3.49 c -4.75,-5.52 -12.79,-4.89 -17.11,0.81 -4.32,5.73 -3.88,17.79 -0.79,24.18 2.86,5.9 10.41,6.62 15.68,3.62 3.61,-2.04 4.17,-6.04 5.31,-9.67 q 0.15,-0.5 0.65,-0.34 l 15.43,4.76 a 0.6,0.59 19.3 0 1 0.38,0.78 c -0.87,2.3 -1.52,4.93 -2.53,6.95 -6.15,12.42 -21.04,15.12 -33.34,12.37 q -8.06,-1.8 -13.28,-6.48 z"
     id="path16"
     inkscape:connector-curvature="0"
     style="fill:#003ea5" />
  <path
     d="m 125.16691,60.883346 -14.88,-0.53 q -0.13,-2.49 -0.11,-4.08 0.24,-17.62 -0.05,-35.25 -0.02,-1.37 -0.15,-2.24 -0.24,-1.55 -0.56,-0.01 -2.23,10.63 -5.27,21.41 c -1.79,6.39 -3.28,13.19 -4.730003,18.52 q -0.23,0.84 -1.01,2.24 l -12.3,0.02 q -0.3,0.14 -0.7,-0.16 -0.25,-0.18 -0.36,-0.57 -3.19,-11.45 -5.94,-23 -2.2,-9.22 -4.33,-16.72 -1.49,-5.24 -1.49,0.21 l -0.01,39.98 -14.98,-0.28 -0.15,-57.5400003 q 0,-1.61 1.6,-1.61 h 22.52 q 0.48,0 0.6,0.46 l 8.86,34.5500003 q 0.22,0.83 0.44,0 L 100.91691,2.7133457 a 1.92,1.92 0 0 1 1.86,-1.44 l 21.7,0.03 a 0.78,0.78 0 0 1 0.78,0.78 z"
     id="path18"
     inkscape:connector-curvature="0"
     style="fill:#003ea5" />
  <path
     d="m 204.07691,60.883346 -15.1,-0.01 0.18,-42.62 q 0.01,-2.32 -0.57,-0.07 l -10.68,41.72 q -5.99,1.4 -13.49,0.66 -0.22,-0.02 -0.2,0.2 0.01,0.12 0.09,0.26 l -0.44,-0.33 q -0.3,-0.23 -0.39,-0.59 l -10.45,-41.57 a 0.33,0.33 0 0 0 -0.65,0.08 l -0.09,41.43 q -0.68,0.61 -1.29,0.59 -6.81,-0.23 -13.74,0.24 V 1.7733457 a 0.51,0.51 0 0 1 0.51,-0.51 l 22.48,0.04 q 1.25,0 1.56,1.22 l 8.34,33.0100003 q 0.44,1.71 0.88,0 l 8.63,-33.2300003 a 1.34,1.36 7.6 0 1 1.3,-1.01 l 22.75,-0.01 a 0.55,0.56 0 0 1 0.55,0.56 z"
     id="path20"
     inkscape:connector-curvature="0"
     style="fill:#003ea5" />
  <path
     d="m 17.316907,43.623346 q -0.45,2 0.46,3.91 c 2.76,5.74 10.08,5.65 14.13,1.65 a 2.48,2.48 0 0 1 1.9,-0.71 l 14.23,0.85 q 0.58,0.03 0.35,0.57 c -4.6,10.7 -16.79,12.93 -27.11,11.96 -15.2000005,-1.43 -22.4600005,-10.62 -21.12000048,-25.86 1.32999998,-15.14 15.03000048,-20.75 28.36000048,-19.27 9.99,1.1 17.55,5.53 20.4,15.34 0.85,2.92 1,6.73 1.37,10 q 0.12,1.13 -1.01,1.13 l -31.5,0.06 a 0.47,0.47 0 0 0 -0.46,0.37 z m 0.4,-8.35 14.4,0.12 a 0.6,0.6 0 0 0 0.61,-0.59 v -0.5 a 7.8,7.8 0 0 0 -7.73,-7.87 v 0 a 7.8,7.8 0 0 0 -7.87,7.73 v 0.5 a 0.6,0.6 0 0 0 0.59,0.61 z"
     id="path22"
     inkscape:connector-curvature="0"
     style="fill:#003ea5" />
</svg>
