<?xml version="1.0" encoding="utf-8"?>
<!-- Generator: Adobe Illustrator 23.0.1, SVG Export Plug-In . SVG Version: 6.00 Build 0)  -->
<svg version="1.1"
	 id="svg3312" inkscape:output_extension="org.inkscape.output.svg.inkscape" inkscape:version="0.45.1" sodipodi:docbase="/home/chm/Desktop" sodipodi:docname="micro_sd.svg" sodipodi:version="0.32" xmlns:cc="http://web.resource.org/cc/" xmlns:dc="http://purl.org/dc/elements/1.1/" xmlns:inkscape="http://www.inkscape.org/namespaces/inkscape" xmlns:rdf="http://www.w3.org/1999/02/22-rdf-syntax-ns#" xmlns:sodipodi="http://sodipodi.sourceforge.net/DTD/sodipodi-0.dtd" xmlns:svg="http://www.w3.org/2000/svg" xmlns:v="http://schemas.microsoft.com/visio/2003/SVGExtensions/"
	 xmlns="http://www.w3.org/2000/svg" xmlns:xlink="http://www.w3.org/1999/xlink" x="0px" y="0px" viewBox="0 0 531 250"
	 enable-background="new 0 0 531 250" xml:space="preserve">
<g>
	<path d="M179.7,209.8l-13,37.7c0,0,39.9,2.2,63.1,2.2c23.2,0,105.1,6.5,101.5-37.7c-3.6-44.2-84.4-35.1-84.1-52.2
		c0.3-11.1,105.1-6.6,105.1-6.6l8.7-21.7c0,0-157.3-11.6-156.6,31.9c0.5,33.3,67.6,34.7,66.7,46.4c-0.6,8.2-37,5.8-59.4,3.6
		C189.2,211.2,179.7,209.8,179.7,209.8"/>
	<path d="M442.1,134.4c-16.2-2-36-3.4-60.1-2.9l-7.4,20.9c2.9,0.1,18.9,0.5,33.4,3.7L442.1,134.4z"/>
	<path d="M485.6,143.8c-4.5-1.5-10-3.1-16.6-4.7l-48.1,20.9c2.3,1,4.4,2.2,6.1,3.5L485.6,143.8z"/>
	<path d="M501.6,150.6l-70.3,18c0.6,1.2,1,2.6,1,4.1c0,19.7-30.4,26.1-75.6,29.6l0,0.2L340,249.6c0,0,163.8,3,189.2-58.7
		C538.9,167.2,506.6,152.7,501.6,150.6"/>
	<path d="M63,190.2V47c0-6-4.4-11.2-13.4-11.2c-8.9,0-13.4,5.2-13.4,11.2v143.2H0V39C0,16.4,22.8,2.2,48,2.2
		c12,0,24.2,5.8,32.4,13.6C88.6,8,100.9,2.2,112.8,2.2c25.2,0,48,14.2,48,36.7v151.2h-36.2V47c0-6-4.4-11.2-13.4-11.2
		c-9,0-13.4,5.2-13.4,11.2v143.2H63z"/>
	<path d="M311.3,16.9c0,15.7-14.7,16.5-14.7,16.5h-20.2c-18.2,0-27.8,11-27.8,25.4c0,14.4,9.6,25.6,27.8,25.6h20.2
		c0,0,14.7,2.3,14.7,15.4c0,13.1-14.7,17.1-14.7,17.1h-21.5c-31.9,0-64.1-21.3-64.1-58.1c0-36.6,32.2-58.1,64.1-58.1h21.5
		C296.6,0.8,311.3,1.2,311.3,16.9"/>
	<path d="M476.4,0.7c40.7,0,54.6,27.8,54.6,58.7c0,31-14.1,57.4-54.6,57.4c-40,0-54.8-26.3-54.8-57.3S435.7,0.7,476.4,0.7
		 M476.4,86.1c18.1,0,23.7-8.4,23.7-26.6c0-18.1-5.6-28.4-23.4-28.4c-18.6,0-24.5,10.7-24.5,28.4C452.2,77.4,458.3,86.1,476.4,86.1"
		/>
	<path d="M317.2,117.4h33.4V42.2c0,0-0.6-13.6,14.9-13.6c13.3,0,17.7,6.5,17.7,6.5l0,10c0,0,3,8.5,17.5,8.5
		c14.5,0,16.3-8.3,16.3-8.3l0-10.6c0,0,0.4-34.7-46.3-34.7c-54.3,0-53.5,37.3-53.5,37.3V117.4z"/>
	<path d="M186.8,36.6c10.3,0,18.3-7.3,18.3-17.2c0-9.8-8-17.2-18.3-17.2c-10.2,0-18.3,7.3-18.3,17.2
		C168.5,29.2,176.5,36.6,186.8,36.6"/>
	<path d="M187.7,40.2c-14.4,0-18.6,9.6-18.6,9.6v70h35.1v-70C204.2,49.7,200.8,40.2,187.7,40.2"/>
</g>
</svg>
