<?xml version="1.0" encoding="UTF-8" standalone="no"?>
<svg
   xmlns:dc="http://purl.org/dc/elements/1.1/"
   xmlns:cc="http://creativecommons.org/ns#"
   xmlns:rdf="http://www.w3.org/1999/02/22-rdf-syntax-ns#"
   xmlns:svg="http://www.w3.org/2000/svg"
   xmlns="http://www.w3.org/2000/svg"
   xmlns:sodipodi="http://sodipodi.sourceforge.net/DTD/sodipodi-0.dtd"
   xmlns:inkscape="http://www.inkscape.org/namespaces/inkscape"
   version="1.1"
   id="Layer_1"
   x="0px"
   y="0px"
   width="800.73499"
   viewBox="0 0 800.73499 1254.0244"
   enable-background="new 0 0 2000 2000"
   xml:space="preserve"
   sodipodi:docname="sablier-icon-color.svg"
   height="1254.0244"
   inkscape:version="0.92.2 (5c3e80d, 2017-08-06)"><metadata
     id="metadata1713"><rdf:RDF><cc:Work
         rdf:about=""><dc:format>image/svg+xml</dc:format><dc:type
           rdf:resource="http://purl.org/dc/dcmitype/StillImage" /><dc:title></dc:title></cc:Work></rdf:RDF></metadata><defs
     id="defs1711" /><sodipodi:namedview
     pagecolor="#ffffff"
     bordercolor="#666666"
     borderopacity="1"
     objecttolerance="10"
     gridtolerance="10"
     guidetolerance="10"
     inkscape:pageopacity="0"
     inkscape:pageshadow="2"
     inkscape:window-width="1920"
     inkscape:window-height="1009"
     id="namedview1709"
     showgrid="false"
     fit-margin-top="0"
     fit-margin-left="0"
     fit-margin-right="0"
     fit-margin-bottom="0"
     inkscape:zoom="0.3337544"
     inkscape:cx="-174.94884"
     inkscape:cy="678.82494"
     inkscape:window-x="-8"
     inkscape:window-y="-8"
     inkscape:window-maximized="1"
     inkscape:current-layer="Layer_1" /><path
     d="m 259.84864,595.26435 c -0.0113,-0.34455 -0.16352,-0.60749 -0.81964,-1.16046 -5.33288,-5.09043 -10.84129,-10.55445 -14.99372,-14.99244 -3.30713,-3.19866 -6.2514,-6.02764 -9.19574,-8.85669 -6.73334,-6.89691 -7.90523,-8.49727 -14.90328,-15.79311 -0.6976,-0.84364 -6.44557,-6.71106 -7.03294,-7.40537 -11.4353,-11.29114 -22.85095,-22.60236 -34.31298,-33.86634 -7.67353,-7.54113 -15.41303,-15.01525 -23.50043,-22.88635 -2.74317,-2.70251 -5.10901,-5.03802 -7.47492,-7.37353 0,0 -0.14892,-0.18183 -0.38714,-0.48719 -0.96057,-1.169 -1.68286,-2.03259 -2.08094,-2.9663 0.76007,-0.13764 1.19605,-0.20508 1.92218,-0.17481 0.49402,0.10925 0.69788,0.12085 0.95856,0.28015 0.0568,0.14771 0.29553,0.34974 0.29553,0.34974 0,0 0.30915,-0.0463 0.44983,0.13964 0.14063,0.18592 0.59168,0.3042 0.66346,0.51013 0.47308,0.35456 0.87432,0.50312 1.31066,0.76203 9.72205,7.43483 23.08516,16.43479 33.11847,23.35327 30.55512,21.57263 63.80965,44.14548 92.00788,64.00116 4.13182,3.03835 8.88739,6.14474 12.56079,8.88629 13.19542,7.60465 23.93106,18.67303 37.2987,25.84168 0.0173,0.0628 0.14679,0.048 0.20697,0.2276 4.97227,3.43618 10.98505,7.60701 15.54322,10.91241 15.84481,9.82278 30.06609,22.60161 45.61456,32.03779 0.0303,0.1516 0.25842,0.356 0.25842,0.356 0,0 0.30457,-0.033 0.422,0.1415 0.11749,0.1748 0.52387,0.2848 0.61084,0.5004 0.49939,0.3953 0.91187,0.5751 1.33948,0.8198 0.0151,0.065 0.14819,0.055 0.20593,0.2416 0.25427,0.393 0.49243,0.468 0.86096,0.5631 0.089,0.1521 0.43128,0.2361 0.41492,0.3522 -0.0164,0.1161 0.33453,0.099 0.58459,0.3823 0.48511,0.3739 0.72022,0.4644 1.03669,0.758 0.31628,0.4018 0.58734,0.4925 0.93853,0.5931 13.06813,7.6611 26.01364,21.07093 39.00792,27.9616 0.07,0.1349 0.3689,0.1913 0.3816,0.3274 0.013,0.136 0.2177,0.3133 0.2177,0.3133 0,0 0.2614,-0.071 0.4007,0.1247 0.1394,0.1957 0.6007,0.3302 0.679,0.5393 0.4724,0.3848 0.8664,0.5603 1.279,0.8222 0.019,0.086 0.1942,0.068 0.2444,0.2422 0.2312,0.372 0.4522,0.4401 0.7981,0.5284 0.085,0.1495 0.4227,0.2167 0.5271,0.4391 0.5361,0.4176 0.9679,0.6128 1.4121,0.8453 0.013,0.038 0.091,0.037 0.1602,0.2383 10.78732,8.25956 22.57815,15.55474 33.2029,23.9346 0.035,0.1629 0.278,0.3877 0.278,0.3877 0,0 0.3312,-0.013 0.451,0.165 0.1196,0.178 0.5278,0.3087 0.4841,0.4058 -0.044,0.097 0.2069,0.012 0.4692,0.3122 0.5071,0.4046 0.7519,0.5086 1.0733,0.8169 0.3091,0.4057 0.5785,0.4976 0.9288,0.5985 0.043,0.1188 0.2946,0.1477 0.3258,0.3062 0.031,0.1584 0.2671,0.3762 0.2671,0.3762 0,0 0.3207,-0.016 0.446,0.1698 0.1253,0.1859 0.5473,0.3372 0.5049,0.4379 0.41273,0.2143 0.88277,0.65303 1.2562,0.9647 0.3975,0.328 0.7688,0.4576 1.1987,0.7173 14.3172,9.98574 28.0745,21.66056 42.1999,31.3146 20.5453,16.1104 41.0202,31.804 61.2774,47.7742 27.4674,21.6545 54.4107,43.954 78.8967,68.998 11.1593,11.4134 21.8334,23.2197 28.0196,38.489 12.2765,30.3006 20.0086,61.8308 25.6656,93.8614 4.7213,26.73285 8.6865,53.61965 12.1862,80.54225 3.214,24.7246 5.4468,49.5796 7.9416,74.3941 1.4449,14.3719 2.6428,28.7704 3.7734,43.1711 0.5385,6.8587 0.6605,13.75 0.9949,21.1529 -6.4242,-0.4506 -12.2025,-0.8966 -17.9863,-1.254 -21.7161,-1.3424 -43.431,-2.7071 -65.1519,-3.9662 -24.3639,-1.4124 -48.7316,-2.7651 -73.1022,-4.0581 -20.5523,-1.0902 -41.1102,-2.0813 -61.6677,-3.0715 -14.4259,-0.6952 -28.8519,-1.4047 -43.2841,-1.9469 -19.7723,-0.7432 -39.5521,-1.919 -59.3255,-1.8588 -33.44399,0.1017 -66.88808,0.9095 -100.32705,1.6512 -18.59869,0.4125 -37.18902,1.2414 -55.77954,1.9737 -24.22412,0.9538 -48.44183,2.0778 -72.66797,2.9743 -15.4577,0.5719 -30.92682,0.8272 -46.38873,1.2954 -10.12897,0.3068 -20.25403,0.741 -30.83215,1.0303 -8.40869,-0.076 -16.366148,-0.064 -24.736508,-0.1323 -1.25367,-0.1155 -2.09436,-0.1502 -3.20459,-0.4282 -2.29718,-0.3042 -4.32496,-0.365 -6.71375,-0.531 -0.60901,-0.1415 -0.85693,-0.1779 -1.22827,-0.4236 -0.58624,-0.3496 -1.04919,-0.4901 -1.51343,-0.73 -0.001,-0.099 -0.19964,-0.1111 -0.23742,-0.3623 -0.31128,-0.6639 -0.58478,-1.0765 -0.87757,-1.9136 -0.67084,-3.9807 -1.8418,-7.5307 -1.88458,-11.0943 -0.19452,-16.19 -0.15985,-32.3847 -0.009,-48.5757 0.046,-4.9414 0.64117,-9.8855 1.13141,-14.8137 1.43975,-14.4726 2.95312,-28.9377 4.54925,-43.7536 0.12177,-1.0773 0.13196,-1.8065 0.3255,-2.8827 1.526937,-14.8506 4.234809,-29.3787 5.76892,-43.9122 0.12879,-0.5894 0.15454,-0.8301 0.38684,-1.3484 3.383154,-35.56765 13.200194,-69.96707 18.586178,-104.64035 0.63927,-2.63222 1.44617,-5.62523 1.92463,-8.011 1.16564,-5.04804 2.73193,-10.041 4.12225,-14.9229 0.36967,-1.20502 0.9023,-2.41275 1.29858,-3.3786 2.45711,-4.77368 6.8171,-8.76315 10.32581,-12.4568 0.34186,-0.3624 0.43072,-0.5479 0.77417,-0.7866 0.76691,-0.7511 1.2793,-1.4491 2.09527,-2.2888 12.86677,-12.67543 25.46239,-25.65261 37.27204,-36.9428 0.34216,-0.2921 0.43762,-0.4522 0.63977,-0.5651 0.10669,0.047 0.19293,-0.3367 0.41284,-0.4505 0.21991,-0.1137 0.45496,-0.5497 0.57166,-0.5157 0.11676,0.034 0.22015,-0.3704 0.43536,-0.4783 0.21521,-0.1079 0.44745,-0.5295 0.57306,-0.5029 0.31952,-0.069 0.36835,-0.2132 0.46863,-0.5033 0.19647,-0.096 0.39319,-0.4872 0.53033,-0.4757 0.33398,-0.087 0.40179,-0.2425 0.51062,-0.5166 0.17005,-0.062 0.32221,-0.3913 0.4776,-0.399 21.52999,-21.2531 44.59919,-42.34567 66.42902,-63.607 0.30169,-0.2649 0.38104,-0.4126 0.57464,-0.5238 0.11432,0.036 0.21051,-0.361 0.43067,-0.4772 0.22021,-0.1162 0.45495,-0.5554 0.57037,-0.5204 0.11542,0.035 0.21552,-0.3655 0.42871,-0.4641 0.2132,-0.099 0.45136,-0.5035 0.58942,-0.4856 0.33996,-0.084 0.40387,-0.2411 0.50403,-0.527 0.17437,-0.072 0.33056,-0.4156 0.48455,-0.419 18.00504,-16.55486 33.95458,-32.56111 51.98359,-49.5498 0.85974,-0.3728 1.24615,-0.4388 1.63257,-0.5048 4.97125,8.294 9.9425,16.5879 15.11877,25.528 8.66723,14.8473 17.15338,29.0344 25.53662,43.2821 0.54907,0.9332 0.30933,2.3305 0.43652,3.5121 -0.28094,0.1705 -0.56183,0.3411 -1.22222,0.8885 -2.17768,2.2874 -3.97577,4.1979 -5.77375,6.1084 -3.93976,4.0723 -7.87952,8.1445 -12.26623,12.6681 -9.82685,10.1238 -19.19452,19.8081 -28.58948,29.4657 -16.9411,17.4148 -33.88129,34.8306 -50.86414,52.2045 -3.25195,3.3267 -5.27258,7.0838 -5.13037,11.8315 -0.0704,20.2535 -0.16736,40.5071 -0.20294,60.7606 -0.0294,16.7721 0.0137,33.54405 0.0248,51.21505 0.003,2.5248 -0.17682,4.1755 0.0411,5.772 0.69903,5.12 2.23999,9.7171 8.05682,11.1875 0.78308,0.3613 1.56616,0.7226 3.12659,1.1218 4.47601,-0.042 8.17474,-0.1213 11.87341,-0.2008 7.711,-0.5894 15.42206,-1.1787 23.99988,-1.7803 11.72858,-0.7352 22.59381,-1.4101 33.4505,-2.2027 4.89789,-0.3576 9.77875,-0.9495 14.6673,-1.4351 0.7301,-0.058 1.46026,-0.1155 2.97424,-0.2141 3.87927,-0.2997 6.97467,-0.5585 10.07007,-0.8174 15.33392,-1.0781 30.66785,-2.1562 46.86883,-3.2735 12.56775,-0.088 24.26836,-0.1363 35.96906,-0.1849 11.5197,0.7127 23.0461,1.3309 34.5555,2.1829 4.8866,0.3619 9.7369,1.2147 15.4748,1.8462 3.8426,0.244 6.8116,0.5294 9.7866,0.7209 11.7267,0.7552 23.4552,1.4809 35.1831,2.2174 16.0334,1.1103 32.0669,2.2205 48.9265,3.243 7.4402,-1.2332 11.0767,-5.2998 12.5447,-12.1115 0.3586,-1.0091 0.5257,-1.6649 0.526,-2.3208 0.01,-36.77535 0.014,-73.55055 -0.031,-110.32595 0,-1.2625 -0.5024,-2.5243 -0.8016,-4.147 -1.48357,-3.31885 -3.12225,-6.54074 -4.5772,-9.2806 -0.39165,-0.49638 -0.79527,-0.8491 -1.3855,-1.4158 -15.65842,-15.46639 -31.47397,-31.69572 -47.1097,-46.6902 0,0 -0.06,0.1007 -0.1383,-0.239 -61.56819,-60.6281 -109.1006,-111.40656 -166.88849,-167.8007 -0.008,-0.3427 -0.15875,-0.6034 -0.81207,-1.1504 -15.49785,-14.92448 -32.20453,-32.72774 -46.30646,-47.2749 0,0 -0.17236,-0.1665 -0.37665,-0.5256 -10.37585,-10.3596 -20.54748,-20.35999 -30.71917,-30.36035 0,0 -0.15314,-0.20655 -0.4206,-0.53431 -5.80061,-5.58019 -10.76578,-10.90201 -16.35662,-16.14434 z"
     id="path4"
     inkscape:connector-curvature="0"
     style="opacity:1;fill:#f27301;stroke:none"
     sodipodi:nodetypes="cccccccccccccccccccccccccccccccccccccccccccccccccccccccccccscccscccccccccccccccccccccccccccccccccccccccsccccccccsccccccccccccccccccccccccccccccccccccccccccccccccc" /><path
     d="m 226.62421,336.84882 c -0.2605,4.3891 2.13238,7.41571 5.02746,10.33459 21.43769,21.61365 42.78144,43.3205 64.23054,64.92273 28.88159,29.08796 57.86053,58.07929 86.74487,87.16443 39.65012,39.92585 79.21662,79.93488 118.88162,119.84583 45.7428,46.02615 91.5545,91.98395 137.3312,137.97645 1.0916,1.0966 2.1222,2.2541 2.4296,4.2695 -0.9392,-0.412 -1.977,-0.6823 -2.8036,-1.2563 -36.0929,-25.0569 -72.1836,-50.1168 -108.2361,-75.2318 -17.2037,-11.9845 -34.4401,-23.9269 -51.4716,-36.1532 C 425.3602,610.388 371.7171,572.38349 318.82459,533.36298 282.12244,506.28675 246.13538,478.20246 210.52295,449.70136 c -24.81433,-19.85931 -48.80792,-40.76666 -69.86059,-64.828 -10.00092,-11.43012 -16.35767,-24.57215 -21.29438,-38.63623 -11.24566,-32.0373 -18.90557,-65.01014 -23.655268,-98.53602 -6.26349,-44.21136 -11.6543,-88.55407 -16.80768,-132.91143 -2.22211,-19.126874 -2.89306,-38.433234 -4.30719,-57.655224 -0.25219,-3.42739 -0.69348,-6.84082 -1.09472,-10.71804 4.93585,0 9.37457,-0.21222 13.7871,0.0382 15.762578,0.89453 31.512878,2.0037 47.274108,2.92481 23.71418,1.38586 47.43189,2.7142 71.15143,4.00561 19.22663,1.04682 38.45575,2.05463 57.6883,2.98627 22.05187,1.06821 44.10668,2.08218 66.16418,3.02762 17.42847,0.74704 34.85828,1.54266 52.29596,1.97382 18.97546,0.46917 37.9611,0.75134 56.9417,0.72473 16.3143,-0.0228 32.6308,-0.4895 48.9409,-0.95258 18.7674,-0.53278 37.5309,-1.23352 56.2928,-1.9433 15.9273,-0.60251 31.85,-1.32763 47.7752,-1.98761 16.5918,-0.68762 33.1798,-1.50039 49.7772,-2.01004 24.7617,-0.76025 49.5281,-1.39587 74.2967,-1.87039 5.9579,-0.11417 11.9778,0.29395 17.8721,1.13947 1.882,0.26999 4.6443,2.5083 4.9573,4.22018 1.4225,7.77978 3.2292,15.74484 2.867,23.54895 -1.2387,26.684604 -2.6398,53.398684 -5.2941,79.970154 -2.6418,26.44635 -6.2909,52.82831 -10.5549,79.06684 -4.8068,29.58148 -10.7816,58.97339 -16.2843,88.44104 -0.5756,3.08331 -1.6326,6.08868 -2.0571,9.18634 -1.8992,13.85693 -10.0101,23.81183 -19.7066,33.13299 -35.069,33.711 -69.8382,67.73371 -104.887,101.46588 -20.0416,19.28882 -40.4118,38.23627 -60.6112,57.36145 -1.6397,1.55256 -3.1028,3.29157 -4.8859,5.19837 -12.1373,-20.71582 -24.1452,-41.20587 -36.1476,-61.6991 -3.4651,-5.91632 -6.6341,-12.03192 -10.4748,-17.69262 -2.3393,-3.44764 -1.5282,-5.36652 1.2023,-7.85688 5.1632,-4.70904 10.1229,-9.65124 15.0162,-14.64465 12.3186,-12.57062 24.5565,-25.22058 36.8208,-37.84448 10.8752,-11.19416 21.7854,-22.35474 32.5935,-33.61347 4.6976,-4.89355 9.6648,-9.64892 13.5721,-15.13476 2.2922,-3.21802 3.8199,-7.74133 3.8499,-11.69147 0.2822,-37.32788 0.4086,-74.66132 0.02,-111.9873 -0.1147,-10.99793 -4.1606,-15.93036 -16.5789,-15.52491 -19.5749,0.63922 -39.1081,2.55732 -58.6588,3.93848 -14.2206,1.00464 -28.4502,1.89923 -42.6576,3.06512 -9.988,0.81964 -19.9247,2.38715 -29.9219,2.94605 -12.8582,0.71899 -25.76804,1.2876 -38.63016,0.94989 -12.89844,-0.33869 -25.76214,-1.91773 -38.64752,-2.86615 -9.97357,-0.73407 -19.96661,-1.2149 -29.93384,-2.02057 -16.16345,-1.3064 -32.31049,-2.81433 -48.46912,-4.18207 -8.30377,-0.70288 -16.6311,-1.14917 -24.92364,-1.95868 -10.57922,-1.03271 -16.53735,2.13959 -18.88538,11.00544 -0.38128,1.86578 -0.65777,3.00885 -0.6585,4.15197 -0.0221,36.39276 -0.0269,72.78559 0.0192,109.17829 0.002,1.42218 0.53082,2.84369 0.81421,4.2655 z"
     id="path6"
     inkscape:connector-curvature="0"
     style="opacity:1;fill:#f27301;stroke:none" /><path
     d="m 0.60574225,26.426296 c -0.21961,-4.67785 -0.56763,-9.35464 -0.60528999803,-14.03396 C -0.01864775,10.017306 0.52187225,7.637786 0.80508225,4.424926 c -0.28931,-3.27713 0.48199005,-4.49924 3.20984005,-3.91141 4.57299,0.98545 9.1733397,1.84339 13.7621997,2.75501 26.04865,4.3819 52.03681,9.17511 78.1651,13.01507 20.778508,3.05374 41.700868,5.22052 62.609558,7.26957 20.62164,2.02096 41.28003,4.24981 61.96857,4.88745 47.41345,1.46127 94.85156,2.42889 142.28607,2.81424 52.65574,0.42779 105.32064,0.24756 157.97734,-0.19931 22.9439,-0.19471 45.9189,-1.12751 68.8033,-2.78379 26.6307,-1.92743 53.2853,-4.21692 79.7354,-7.7876 38.6973,-5.22396 77.224,-11.71374 115.8176,-17.7022 5.0429,-0.78251 10.0509,-1.79044 15.5644,-2.7819599999998 C 800.70446,1.967986 800.78046,3.768366 800.69346,5.560916 c -1.2901,26.54617 -2.4406,53.10055 -3.9616,79.63363 -1.1202,19.542034 -2.4584,39.080294 -4.2046,58.574984 -1.5494,17.29554 -3.5395,34.56214 -5.7944,51.78132 -3.1315,23.91223 -6.2382,47.8443 -10.2217,71.62274 -2.8558,17.04742 -6.732,33.95514 -10.8655,50.74988 -6.1449,24.96728 -13.8058,49.47784 -25.9863,72.28729 -5.5382,10.37085 -12.0002,20.01336 -20.4966,28.45758 -55.5554,55.21429 -110.8576,110.68335 -166.2473,166.06457 -1.2738,1.27363 -2.6017,2.49311 -4.4657,4.27442 -8.4,-14.19257 -16.5804,-28.01416 -24.1352,-40.77881 5.821,-5.05084 11.482,-9.55457 16.6827,-14.53858 52.0867,-49.91674 103.8154,-100.21173 156.3099,-149.69482 14.86,-14.00745 23.0517,-30.25616 26.4397,-49.953 6.2478,-36.32166 13.464,-72.47876 19.5264,-108.82959 3.3009,-19.79236 5.5937,-39.79407 7.3823,-59.78711 2.3676,-26.46637 4.2692,-52.99671 5.3922,-79.540964 0.4376,-10.34304 -1.081,-20.93023 -2.9898,-31.16732 -2.0487,-10.98731 -7.3056,-14.8169 -18.5015,-15.11933 -17.9657,-0.48523 -35.9613,-1.33395 -53.9067,-0.79113 -36.5724,1.10613 -73.1176,3.09075 -109.6784,4.60702 -19.6199,0.81363 -39.2441,1.62082 -58.8747,2.05264 -36.9516,0.81275 -73.9135,2.03299 -110.86308,1.79804 -32.09052,-0.2041 -64.17139,-2.1406 -96.25324,-3.39527 -18.12536,-0.70883 -36.25201,-1.43948 -54.36383,-2.42285 -26.87939,-1.45947 -53.74469,-3.17624 -80.61883,-4.7348 -13.60474,-0.789 -27.21973,-1.40356 -40.82288,-2.21817 -19.09118,-1.14328 -38.179988,-2.33597 -57.261168,-3.63419 -9.41583,-0.64062 -13.54101,2.82444 -12.93378,12.32846 1.38819,21.72767 3.09144,43.43631 4.8078,65.141514 1.28229,16.21607 2.24427,32.4838 4.30353,48.6066 4.14887,32.48285 8.49628,64.95398 13.60974,97.29596 4.87561,30.83759 12.4065,61.0871 21.258728,91.08429 9.73822,32.99982 31.25513,57.10803 55.78528,79.42359 49.86322,45.36138 103.52997,85.97198 157.87244,125.6726 48.28082,35.27222 97.16349,69.72199 145.85279,104.43334 22.8739,16.3071 45.8341,32.4961 68.9069,48.5206 26.2355,18.2211 52.7496,36.042 78.9373,54.3309 21.4507,14.9803 42.6407,30.3358 63.8705,45.6301 16.1873,11.6617 32.2703,23.4686 48.3721,35.2488 9.475,6.9317 13.993,17.4585 19.1546,27.359 12.9294,24.7998 20.3392,51.6064 26.6471,78.6239 4.8683,20.8519 8.4687,42.0211 12.0196,63.15215 2.6278,15.637 4.3969,31.4242 6.3158,47.1727 2.0803,17.0751 4.0866,34.1638 5.7574,51.2825 1.369,14.0292 2.2927,28.1047 3.2439,42.1711 1.3328,19.7073 2.8757,39.4112 3.6322,59.1432 0.5901,15.3875 0.1183,30.8155 0.1183,46.4528 -8.5674,-1.6697 -17.7452,-3.6248 -26.9852,-5.2194 -13.2078,-2.279 -26.4628,-4.2821 -39.6939,-6.4267 -9.5017,-1.54 -18.9649,-3.3605 -28.503,-4.6194 -12.6049,-1.6638 -25.273,-2.8429 -37.9003,-4.3446 -6.7661,-0.8046 -13.4854,-2.0208 -20.2587,-2.7429 -9.1445,-0.975 -18.3211,-1.6488 -27.4832,-2.4599 -6.3245,-0.5598 -12.6437,-1.1848 -18.9728,-1.685 -5.7415,-0.4543 -11.4887,-0.8804 -17.2414,-1.1423 -17.8302,-0.811 -35.6616,-1.6086 -53.4978,-2.2675 -8.8227,-0.3258 -17.6571,-0.4657 -26.4862,-0.4679 -71.4914,-0.018 -142.983,-0.016 -214.47439,0.071 -10.99377,0.014 -21.99219,0.3609 -32.97913,0.7923 -13.00726,0.5105 -26.01721,1.0928 -39.00268,1.9834 -16.56134,1.1361 -33.12109,2.3893 -49.64148,4.0014 -17.83746,1.7407 -35.71228,3.4011 -53.4223,6.0787 -34.839848,5.2679 -69.578548,11.206 -104.3536377,16.9002 -2.70703,0.4434 -5.37158,1.147 -7.64331005,1.6402 0,-6.0553 -0.088,-11.7829 0.018,-17.5069 0.23266005,-12.5699 0.21051005,-25.1587 0.93743005,-37.7022 1.07459,-18.54 2.60791,-37.0561 4.13538,-55.5666 1.48248,-17.9648 3.1806,-35.912 4.8284297,-53.8628 1.28919,-14.0437 2.18872,-28.143 4.08576,-42.1058 2.5288,-18.613 5.43695,-37.1975 8.94879,-55.64825 4.26812,-22.4243 8.64227,-44.8735 14.29046,-66.9747 3.99457,-15.6308 9.45856,-30.9998 15.62274,-45.9256 4.78101,-11.5765 11.10248,-22.6405 17.83069,-33.2395 3.59101,-5.657 9.49805,-9.8426 14.3537,-14.6985 44.893008,-44.896 89.784668,-89.7935 135.120118,-135.1295 10.47369,-10.5063 20.5039,-20.574 30.83478,-30.9435 2.195,3.062 3.90368,5.4456 5.61236,7.8291 5.98956,10.3966 11.97418,20.7962 17.97193,31.1881 1.64898,2.8571 3.09497,5.8737 5.06543,8.4927 2.82019,3.7486 1.20868,6.226 -1.73566,8.667 -57.83769,51.97757 -125.68003,117.06741 -173.2735,166.8941 -3.49615,5.38451 -8.093646,12.04598 -9.537658,17.4913 -5.20245,21.0416 -9.96203,42.2201 -13.99328,63.5163 -4.4809,23.6717 -8.33362,47.47765 -11.8017,71.32075 -2.95667,20.3277 -5.12409,40.7753 -7.36225,61.2004 -1.31884,12.0351 -2.06426,24.1323 -3.12304,36.1969 -1.79151,20.4135 -2.52442,40.818 0.28747,61.2085 1.81226,13.1413 6.36316,18.6234 17.32495,20.3523 4.24933,0.6701 8.59308,1.1665 12.88221,1.0899 27.266048,-0.4865 54.534358,-0.978 81.791068,-1.8169 24.58387,-0.7564 49.1543,-1.9514 73.73004,-2.9681 15.44178,-0.6387 30.87861,-1.4226 46.32453,-1.9321 23.43231,-0.7731 46.87732,-2.0904 70.30499,-1.8752 43.90745,0.4031 87.81065,1.5829 131.70695,2.7603 18.4237,0.4941 36.8264,1.7923 55.2376,2.7454 26.5331,1.3734 53.0642,2.7838 79.5981,4.1422 14.9231,0.7639 29.8516,1.426 44.7746,2.1932 6.2977,0.3239 12.586,0.8256 18.8813,1.2018 16.5756,0.9907 33.1527,1.9568 50.051,3.1382 1.553,0.2099 2.7838,0.2146 4.3743,0.2997 6.4424,-1.6451 8.9294,-4.4284 8.6016,-10.5174 -0.7677,-14.2546 -1.6813,-28.5072 -2.8829,-42.7314 -2.2041,-26.0934 -4.2435,-52.2116 -7.1258,-78.2337 -2.8698,-25.9102 -6.2274,-51.787 -10.2081,-77.549 -5.3208,-34.43345 -12.0444,-68.62825 -22.8993,-101.81895 -5.0534,-15.4513 -9.9367,-31.1156 -20.4225,-44.1049 0.086,-0.047 -0.2105,-0.1502 -0.2881,-0.3486 -0.078,-0.1985 -0.4225,-0.4495 -0.4285,-0.6167 -0.1052,-0.4083 -0.2851,-0.5188 -0.6982,-0.8557 -0.6524,-0.9439 -1.1519,-1.531 -1.5693,-2.1708 0.082,-0.053 -0.2145,-0.1505 -0.2981,-0.3517 -0.084,-0.2011 -0.4386,-0.4541 -0.4388,-0.6007 -0.1123,-0.3434 -0.28,-0.4225 -0.6726,-0.7298 -1.0022,-1.3114 -1.8353,-2.2768 -2.5825,-3.2861 0.086,-0.044 -0.1819,-0.082 -0.3337,-0.3294 -0.3149,-0.3522 -0.4779,-0.4567 -0.5835,-0.6409 0.058,-0.08 -0.2486,-0.1229 -0.371,-0.3558 -6.75001,-7.67408 -13.30625,-14.5046 -20.0245,-20.9428 -0.3622,-0.3929 -0.5434,-0.5139 -0.6486,-0.6896 0.076,-0.055 -0.1697,-0.038 -0.3507,-0.3099 -0.3618,-0.3921 -0.5427,-0.5127 -0.648,-0.6882 0.076,-0.055 -0.1683,-0.037 -0.3547,-0.303 -0.3694,-0.3824 -0.5522,-0.4987 -0.6678,-0.6589 0.067,-0.044 -0.099,0.016 -0.3168,-0.2947 -2.9005,-2.7205 -5.5833,-5.1307 -8.2876,-7.7096 -20.44654,-16.95618 -39.93425,-36.64859 -61.7693,-52.0321 -3.79572,-2.59224 -6.11483,-4.56542 -10.9393,-8.575 -0.1,-0.154 -0.4419,-0.2846 -0.4353,-0.4068 -22.04748,-18.65127 -45.80459,-33.83324 -68.1795,-51.9596 0.055,-0.068 -0.1207,0.024 -0.4171,-0.2737 -2.99341,-2.27212 -6.25211,-4.55401 -9.1776,-6.7891 -0.2142,-0.3624 -0.4239,-0.4304 -0.7931,-0.5377 -30.46836,-22.80291 -56.42256,-41.0533 -83.2494,-60.4034 -0.1767,-0.3618 -0.3684,-0.4233 -0.7337,-0.5131 -0.1288,-0.1683 -0.5306,-0.3038 -0.6192,-0.5184 -0.503,-0.3913 -0.9174,-0.5678 -1.3492,-0.8044 -0.017,-0.06 -0.1424,-0.055 -0.1989,-0.2386 -0.2451,-0.3886 -0.4772,-0.4701 -0.8489,-0.5726 -0.096,-0.1441 -0.4265,-0.2494 -0.4244,-0.3685 0,-0.1191 -0.3928,-0.1715 -0.6563,-0.452 -38.59943,-28.73422 -77.77684,-53.00957 -116.1811,-81.52425 -0.16247,-0.34588 -0.3399,-0.39111 -0.71789,-0.4721 -0.16224,-0.18622 -0.6297,-0.34577 -0.70105,-0.55231 -0.46302,-0.36816 -0.85462,-0.52978 -1.27124,-0.79272 -0.025,-0.1012 -0.23273,-0.0833 -0.27191,-0.24494 -0.19886,-0.35565 -0.3985,-0.41479 -0.75818,-0.4964 -0.12012,-0.15747 -0.49909,-0.27227 -0.59198,-0.48724 -0.51526,-0.38672 -0.93769,-0.55847 -1.3772,-0.79376 -0.0172,-0.0636 -0.14881,-0.059 -0.20111,-0.24109 -58.45874,-41.18687 -105.76015,-74.22992 -159.04584,-110.31085 0,0 -0.16803,-0.13123 -0.38586,-0.46442 -3.56,-2.60626 -6.90222,-4.87927 -10.24451,-7.15228 0,0 -0.0179,0.15326 -0.14337,-0.24005 -10.70276,-8.17633 -21.279968,-15.95935 -31.857238,-23.74237 0,0 -0.10785,0.15655 -0.18189,-0.24744 -0.96838,-1.14209 -1.87847,-1.86188 -2.75451,-2.6211 -6.51361,-5.64434 -14.08466,-10.47692 -19.23938,-17.16967 -5.50256,-7.14423 -9.58869,-15.72541 -12.75379,-24.25073 -6.3236,-17.03333 -11.59582,-34.45691 -17.30224,-51.71937 -0.57678,-2.34149 -1.15357,-4.68304 -1.94861,-7.80304 -2.43414,-10.21276 -4.65009,-19.64703 -6.86597,-29.08135 C 9.9269143,200.51319 6.7290781,112.85152 0.60574225,26.426296 Z"
     id="path8"
     inkscape:connector-curvature="0"
     style="opacity:1;fill:#fec102;stroke:none"
     sodipodi:nodetypes="cccccsccsssccccccccscscccccccccccccccccscscscsccsccccccccccccccccccccccccccccccccccccccccccccccccsccccccccccccccccccccccccccccccccccccccccccccccccccccccccccccccccccccccccccccccc" /></svg>