<?xml version="1.0" encoding="UTF-8"?>
<svg height="88.14mm" viewBox="0,0,495.962,88.1427" width="495.96mm" xmlns="http://www.w3.org/2000/svg">
 <metadata/>
 <g stroke-width=".265" transform="translate(158.78 -78.3)">
  <path d="m-52.2321 145.103-17.2548-52.914h6.47065l13.1329 40.8358 13.4684-40.8358h5.89545l13.4205 40.7405 13.1807-40.7405h6.27883l-17.2069 52.914h-4.79293l-13.9475-42.6085-13.8038 42.6085h-4.84082zm53.4114 0v-41.0289h6.51854v41.0289zm21.6297-17.8779v17.8779h-6.4225v-40.8358h28.1834q6.27856 0 9.82557 3.01969 3.54647 3.01969 3.54674 8.38782a11.0527 11.0527 0 0 1 -2.80406 7.54883q-2.80379 3.18823-7.30911 3.90631l11.3594 17.9737h-6.94981l-11.5991-17.8779h-17.83zm0-5.99123h21.7601q3.30729 0 5.05671-1.4379 1.74893-1.43791 1.74938-4.12195 0-2.68367-1.74938-4.09786-1.75027-1.4133-5.05671-1.41399h-21.7601v11.0718zm41.1877 23.8691v-40.931h38.391v5.99123h-31.9696v10.2089h20.9934v5.89545h-20.9934v12.941h33.7423v5.89544h-40.1664zm85.3228-14.3298v-7.76473h-14.4269v-6.087h20.9934v15.9128q-3.83514 6.61432-9.99331 10.137-6.1595 3.52293-13.9716 3.52293-11.8875 0-19.6273-7.83669-7.74093-7.83643-7.74066-19.8668 0-12.0782 7.76474-19.9149 7.76472-7.83643 19.6032-7.83643 7.33319 0 13.3726 3.21125a25.9607 25.9607 0 0 1 9.82557 9.15458l-5.51207 3.93012a18.0927 18.0927 0 0 0 -7.18952-7.42924 20.7828 20.7828 0 0 0 -10.4966-2.6842q-8.91487 0-14.7624 6.11108-5.84835 6.11081-5.84755 15.4572 0 9.34641 5.84755 15.4334 5.84703 6.08753 14.7624 6.087 5.55942 0 9.89753-2.39649 4.33732-2.39619 7.50121-7.14163zm13.7319-26.5052h6.42249v26.2176q0 5.89544 2.77998 7.95628 2.77918 2.06132 11.0239 2.061 8.29152 0 11.0718-2.061 2.77918-2.06015 2.77997-7.95628v-26.2176h6.37461v27.895q0 7.52527-4.76911 10.8802-4.76965 3.35412-15.5533 3.35518-10.7371 0-15.4334-3.30729-4.69794-3.30729-4.69715-10.9281v-27.895zm39.4494 40.835 20.8015-40.931h4.02617l20.9934 40.931h-6.85403l-5.32024-10.4008h-21.6165l-5.27235 10.4008zm14.8103-15.8168h16.0086l-7.95628-15.6731zm38.1328-2.0611v17.8779h-6.4225v-40.8358h28.1834q6.27856 0 9.82556 3.01969 3.54648 3.01969 3.54674 8.38782a11.0527 11.0527 0 0 1 -2.80405 7.54883q-2.80379 3.18823-7.30912 3.90631l11.3594 17.9737h-6.94981l-11.5991-17.8779h-17.83zm0-5.99123h21.7601q3.30729 0 5.05672-1.4379 1.74892-1.43791 1.74937-4.12195 0-2.68367-1.74937-4.09786-1.75027-1.4133-5.05672-1.41399h-21.7601v11.0718zm59.4519-17.0616q10.0171 0 16.1523 5.72743 6.13463 5.72823 6.13516 14.8823 0 9.2509-6.0153 14.7865-6.01557 5.53561-16.2721 5.53588h-18.1655v-40.931h18.1655zm.0959 5.89544h-11.8388v29.1412h11.8388q7.28504 0 11.4551-3.90631 4.16984-3.90578 4.16984-10.6164 0-6.47065-4.31377-10.5447-4.31377-4.07326-11.3115-4.07405z" fill="#88171a"/>
  <path d="m-53.0311 158.904v4.92495h-1.67923v-10.7019h9.88748v1.56644h-8.20817v2.66911h5.30093v1.54139h-5.30093zm6.7654 4.9239 5.43877-10.7019h1.05265l5.48878 10.7019h-1.79202l-1.39102-2.71939h-5.65177l-1.37848 2.71939h-1.76694zm3.87218-4.13544h4.18544l-2.08023-4.09787zm9.29878 2.77019.81454-1.40354a9.39588 9.39588 0 0 0 2.40607 1.1529 8.24018 8.24018 0 0 0 2.49378.41354 4.10236 4.10236 0 0 0 2.30579-.58267 1.74167 1.74167 0 0 0 .8772-1.49759 1.45677 1.45677 0 0 0 -.80201-1.35962q-.80208-.44473-2.53137-.49506-2.91994-.0376-4.01003-.6767-1.09024-.6391-1.09024-2.11783a2.58897 2.58897 0 0 1 1.19671-2.21808q1.19663-.83947 3.21443-.8396a9.27656 9.27656 0 0 1 2.67546.38846 10.002 10.002 0 0 1 2.5001 1.1529l-.8396 1.39099a8.44206 8.44206 0 0 0 -2.15543-1.04632 7.2226 7.2226 0 0 0 -2.20554-.36976 3.8989 3.8989 0 0 0 -1.95492.42609 1.26563 1.26563 0 0 0 -.73936 1.1153 1.04201 1.04201 0 0 0 .74571 1.01504q.7453.30076 2.5877.30076 2.55643 0 3.85974.86468 1.30321.86469 1.30329 2.56897a3.04509 3.04509 0 0 1 -1.32215 2.51884q-1.32221 1.00245-3.42742 1.00253a11.0554 11.0554 0 0 1 -3.08901-.44482 10.7852 10.7852 0 0 1 -2.81331-1.25947zm16.6793 1.36525v-9.21068h-4.51141v-1.49124h10.7019v1.49124h-4.52385v9.21068h-1.66669zm9.64671 2.18016a10.1584 10.1584 0 0 0 .65164-1.09024 7.17709 7.17709 0 0 0 .45114-1.09024h-.10025a.7947.7947 0 0 1 -.64543-.31962 1.2483 1.2483 0 0 1 -.25683-.80822 1.27804 1.27804 0 0 1 .30697-.88342.98893.98893 0 0 1 .77076-.34467 1.00177 1.00177 0 0 1 .85214.45733 2.0901 2.0901 0 0 1 .32581 1.23441 3.05541 3.05541 0 0 1 -.4762 1.51011 9.16675 9.16675 0 0 1 -1.41605 1.77316zm16.8301-2.18016v-10.7019h1.391l4.386 6.26586 4.38599-6.26586h1.391v10.7019h-1.66669v-7.69435l-4.1103 5.95259-4.09787-5.95259v7.69435h-1.67921zm21.3519.33866q-2.85724 0-4.69927-1.61658a5.39485 5.39485 0 0 1 -.006-8.11424q1.83573-1.59758 4.70562-1.59771 2.8948 0 4.73075 1.59149a5.40861 5.40861 0 0 1 -.006 8.12668q-1.84213 1.61057-4.7244 1.61036zm0-1.56644q2.14289 0 3.4962-1.15911a3.8817 3.8817 0 0 0 -.006-5.89624q-1.3598-1.16544-3.48985-1.16544-2.13048 0-3.47769 1.15912a3.90631 3.90631 0 0 0 0 5.90259q1.34702 1.15924 3.47769 1.15911zm14.5759-9.47462q2.61903 0 4.22301 1.49759 1.60398 1.4976 1.60404 3.89097 0 2.41866-1.57263 3.86582-1.57298 1.44759-4.2545 1.44746h-4.74954v-10.7019h4.74954zm.025 1.54138h-3.09536v7.61921h3.09536q1.90474 0 2.99508-1.02127 1.09025-1.02126 1.09025-2.77574a3.62109 3.62109 0 0 0 -1.12784-2.75696q-1.12782-1.06505-2.95752-1.06518zm8.95755 9.16102v-10.7019h10.0378v1.56644h-8.35845v2.66911h5.48878v1.54139h-5.48878v3.38349h8.82227v1.54138h-10.5013zm15.0998-4.67519v4.67413h-1.6792v-10.677h7.36864q1.64158 0 2.56897.78949a2.72547 2.72547 0 0 1 .92734 2.19303 2.89084 2.89084 0 0 1 -.73303 1.97379 3.11044 3.11044 0 0 1 -1.91111 1.02126l2.96995 4.69927h-1.81708l-3.03265-4.67413h-4.6617zm0-1.56644h5.68934a2.03536 2.03536 0 0 0 1.32201-.37595 1.31543 1.31543 0 0 0 .45747-1.0777 1.29773 1.29773 0 0 0 -.45747-1.07151 2.06113 2.06113 0 0 0 -1.32201-.36962h-5.68934v2.8948zm12.745 6.24163v-10.7019h.8772l6.80455 7.51893v-7.51893h1.64164v10.7019h-.8772l-6.79212-7.4938v7.4938h-1.65418zm14.7876 2.18016a10.1584 10.1584 0 0 0 .65164-1.09024 7.17709 7.17709 0 0 0 .45115-1.09024h-.10026a.7947.7947 0 0 1 -.64542-.31962 1.2483 1.2483 0 0 1 -.25683-.80822 1.27804 1.27804 0 0 1 .30697-.88342.98893.98893 0 0 1 .77075-.3447 1.00177 1.00177 0 0 1 .85215.45733 2.0901 2.0901 0 0 1 .3258 1.23442 3.05541 3.05541 0 0 1 -.47619 1.51011 9.16675 9.16675 0 0 1 -1.41605 1.77316zm15.9173-3.54541.81454-1.40354a9.39588 9.39588 0 0 0 2.40607 1.1529 8.24018 8.24018 0 0 0 2.49378.41354 4.10236 4.10236 0 0 0 2.30579-.58267 1.74167 1.74167 0 0 0 .8772-1.49759 1.45677 1.45677 0 0 0 -.80201-1.35962q-.80208-.44473-2.53137-.49506-2.91994-.0376-4.01003-.6767-1.09024-.6391-1.09024-2.11783a2.58897 2.58897 0 0 1 1.19671-2.21808q1.19663-.83947 3.21442-.8396a9.27656 9.27656 0 0 1 2.67547.38849 10.002 10.002 0 0 1 2.5001 1.15289l-.8396 1.391a8.44206 8.44206 0 0 0 -2.15543-1.04632 7.2226 7.2226 0 0 0 -2.20554-.36976 3.8989 3.8989 0 0 0 -1.95493.42609 1.26563 1.26563 0 0 0 -.73935 1.11529 1.04201 1.04201 0 0 0 .7457 1.01505q.74531.30075 2.58771.30075 2.55643 0 3.85974.86469 1.30321.86468 1.30328 2.56897a3.04509 3.04509 0 0 1 -1.32214 2.51883q-1.32221 1.00246-3.42742 1.00254a11.0554 11.0554 0 0 1 -3.08901-.44482 10.7852 10.7852 0 0 1 -2.81331-1.25947zm14.1288 1.36525v-10.7019h10.0378v1.56644h-8.35845v2.66911h5.48878v1.54139h-5.48878v3.38349h8.82226v1.54138h-10.5013zm24.7385-2.61938a6.07113 6.07113 0 0 1 -2.39972 2.19922 7.32367 7.32367 0 0 1 -3.37741.75821q-2.81966 0-4.64291-1.59771a5.43216 5.43216 0 0 1 0-8.12033q1.82314-1.61017 4.64291-1.61036a7.5184 7.5184 0 0 1 3.18294.65797 5.79173 5.79173 0 0 1 2.30579 1.86087l-1.32834.92733a4.34763 4.34763 0 0 0 -1.74821-1.40972 5.74119 5.74119 0 0 0 -2.41226-.49506 4.99745 4.99745 0 0 0 -3.40227 1.17176 3.87271 3.87271 0 0 0 .006 5.87719 5.00221 5.00221 0 0 0 3.39592 1.17176 5.4065 5.4065 0 0 0 2.51884-.56394 5.3467 5.3467 0 0 0 1.91733-1.75442zm3.33375-8.05656h1.67923v6.85482q0 1.54139.72684 2.08024.7267.53893 2.88237.53885 2.16789 0 2.8948-.53885.72671-.53872.72684-2.08024v-6.85482h1.66669v7.29324q0 1.96752-1.24682 2.84453-1.24722.87707-4.06665.8772-2.80723 0-4.03516-.86468-1.22822-.86469-1.22809-2.85724v-7.29324zm16.4571 6.00075v4.67413h-1.67923v-10.677h7.36865q1.64155 0 2.56897.78949a2.72547 2.72547 0 0 1 .92734 2.19303 2.89084 2.89084 0 0 1 -.73303 1.97379 3.11044 3.11044 0 0 1 -1.91111 1.02126l2.96994 4.69927h-1.81708l-3.03265-4.67413h-4.66169zm0-1.56644h5.68934a2.03536 2.03536 0 0 0 1.32201-.37595 1.31543 1.31543 0 0 0 .45747-1.0777 1.29773 1.29773 0 0 0 -.45747-1.07151 2.06113 2.06113 0 0 0 -1.32201-.36962h-5.68934v2.8948zm12.7265 6.24163v-10.7019h10.0378v1.56644h-8.35845v2.66911h5.48878v1.54139h-5.48878v3.38349h8.82227v1.54138h-10.5013zm27.1198 0h-.86468l-5.37602-10.7019h1.77948l4.02272 8.00761 3.96002-8.00761h1.84214zm9.68375-4.67519v4.67413h-1.67923v-10.7019h7.78219q1.65417 0 2.57529.78317a2.7305 2.7305 0 0 1 .92102 2.19935 2.86253 2.86253 0 0 1 -.9148 2.19302 3.38799 3.38799 0 0 1 -2.40607.85214h-6.27829zm0-1.56644h6.10288a2.0134 2.0134 0 0 0 1.30948-.37595 1.50535 1.50535 0 0 0 .0188-2.14288 1.87116 1.87116 0 0 0 -1.25315-.37595h-6.17802v2.8948zm12.4883 6.24163v-10.7019h.8772l6.80456 7.51893v-7.51893h1.64163v10.7019h-.8772l-6.79212-7.4938v7.4938h-1.65417zm25.0825 0v-9.21068h-4.51141v-1.49124h10.7019v1.49124h-4.52385v9.21068h-1.66669zm8.3873-10.6759h1.67923v6.85482q0 1.54139.72683 2.08024.72671.53893 2.88237.53885 2.16789 0 2.89481-.53885.72671-.53872.72684-2.08024v-6.85482h1.66669v7.29324q0 1.96752-1.24683 2.84453-1.24721.87707-4.06664.8772-2.80723 0-4.03516-.86468-1.22822-.86469-1.22809-2.85724v-7.29324zm14.7902 10.6759v-10.7019h.8772l6.80456 7.51893v-7.51893h1.64163v10.7019h-.8772l-6.79212-7.4938v7.4938h-1.65417zm13.5202 0v-10.7019h.8772l6.80456 7.51893v-7.51893h1.64163v10.7019h-.8772l-6.79212-7.4938v7.4938h-1.65417zm13.4938 0v-10.7019h10.0378v1.56644h-8.35845v2.66911h5.48878v1.54139h-5.48878v3.38349h8.82227v1.54138h-10.5013zm13.4144 0v-10.7019h1.67923v9.16067h7.94491v1.54138h-9.62422z"/>
  <path d="m-79.4709 116.816s1.8361-38.5128-40.4918-38.5128c-37.4332 0-38.6027 36.9438-38.6027 36.9438s-5.50624 42.4312 39.4652 42.4312c43.1324 0 39.6293-40.8622 39.6293-40.8622zm-52.3346-13.4575c7.942-4.85881 18.0885-1.88916 21.8903 5.4176.72054 1.38478.81211 3.51658.35578 4.96941-1.57548 5.01544-5.29537 7.82823-10.4013 9.02308 1.50527-1.2887 2.70352-2.75007 3.08478-4.76911a6.98553 6.98553 0 0 0 -1.20187-5.54461 7.08025 7.08025 0 0 0 -8.15208-2.48422c-3.14351 1.19356-4.86542 4.06241-4.55506 7.58904.28834 3.27581 2.77389 5.39882 7.42447 6.20527-.69506.36788-1.23039.63881-1.75416.93059a16.9116 16.9116 0 0 0 -5.4356 4.72758c-.47199.63722-.7965.68855-1.51527.24901-9.34984-5.71764-9.95071-20.067.25989-26.3136zm-6.99797 35.3298c-1.50201.38126-2.95751.94567-4.49289 1.44925.75102-5.06703 6.6847-9.73349 11.7025-9.20115a12.9331 12.9331 0 0 0 -2.44528 6.85086c-1.6674.30708-3.23876.51366-4.76435.90091zm31.959-49.4718c1.48429.05454 2.97127.03199 4.45665.06715a7.68668 7.68668 0 0 1 1.10262.15364 10.7439 10.7439 0 0 1 -1.1207 1.43753c-.53101.4948-1.13096.97859-1.89603.22648-.18401-.1809-.61875-.13938-.93892-.1436-1.47699-.01941-2.95593-.06661-4.43072-.01093a27.5272 27.5272 0 0 0 -3.81661.38973c-.23645.04246-.58999.82854-.4813 1.11839.25646.68403.63058 1.43835 1.18477 1.87584 2.04796 1.6166 4.22593 3.06811 6.28333 4.6736 1.99919 1.56014 3.86 3.26972 4.99401 5.62319 1.47751 3.06652 1.52056 6.282.88339 9.51177-1.0637 5.39168-3.79227 9.85864-8.21055 13.1032-1.78033 1.30731-3.98463 2.04923-6.02377 2.98847-1.79334.82616-3.63934 1.53763-5.43692 2.35501-3.24088 1.47359-5.06227 4.99136-4.52649 8.6487.49172 3.35624 3.43614 6.15711 6.80905 6.73523 4.04601.69363 8.22087-1.93577 9.21067-6.04838 1.11303-4.62438-1.39959-8.75321-6.10261-10.0047-.20709-.0551-.41497-.10729-.84699-.21878 1.25807-.56211 2.34458-.96258 3.34778-1.51458q2.62501-1.44447 5.15435-3.05911c.49588-.31724.76379-.3174 1.1867.0482 3.23454 2.79664 5.16414 6.27539 5.70522 10.5407.89548 7.06014-2.44663 13.5461-8.7503 16.8704-9.75255 5.14323-21.6866-.71078-23.8406-11.5231-1.84515-9.26121 4.69106-17.662 12.5576-19.2839 3.38323-.69755 6.477-2.10598 8.88207-4.71143 1.55183-1.68119 2.30409-3.12368 2.56042-3.77455a10.4682 10.4682 0 0 0 .71996-3.82826 8.96064 8.96064 0 0 0 -.7846-3.2803c-.82126-1.87193-3.96742-4.84982-4.74636-5.47794l-7.40833-5.79993c-.2613-.21499-.55547-.19941-1.19271-.15622-.757.05131-2.69214.15845-3.52717-.06036.67549-.5112 2.51704-1.25548 3.30783-1.85394-2.40067-1.62182-5.14086-1.03606-7.65731-1.52032.58187-1.08371 3.46101-2.74902 5.09852-2.93449a24.2181 24.2181 0 0 0 -.44651-2.72018c-.1-.36822-.51096-.72517-.86953-.93544-.86942-.50977-1.79107-.93046-2.79109-1.4374a5.8039 5.8039 0 0 1 2.99826-.9275 11.1961 11.1961 0 0 1 3.00249.29252c1.78388.40759 3.20781.14153 4.62704-1.07103-1.11707-.44985-2.23401-.86082-3.31735-1.34692a32.5543 32.5543 0 0 1 -3.11653-1.62938c2.81041.39039 5.52874 1.44423 8.40238 1.05923q.0367-.19592.0734-.39182c-2.14826-.50004-4.29657-1.00007-6.67517-1.55374 3.97933-.36431 7.68403-.42439 11.1921 1.28431.98716.48083 2.02004.87881 2.96624 1.42801.46151.26786.77221.79581 1.15083 1.20634.30073.3261.54227.76298.91176.95949 1.40229.7457 2.94587.77499 4.51855.73763.0117-.17911.0228-.34697.0346-.52739 1.58276.49459 3.36418 2.31984 3.36127 3.65284-2.56411 0-5.12604-.0098-7.68774.01426-.27379.0026-.54573.20257-.81851.31099.25925.15099.51403.42317.77848.43291z" fill="#88171a"/>
  <path d="m-110.152 85.4225a.39174.39174 0 0 0 -.0501.62669.59071.59071 0 0 0 .8129.21746c.24681-.12449.4889-.25701.78714-.41447-.24021-.20505-.43291-.37433-.63122-.53774-.34872-.28734-.63791-.10686-.91873.10804z"/>
 </g>
</svg>
